<?xml version="1.0" encoding="UTF-8" standalone="no"?>
<!-- Created with Inkscape (http://www.inkscape.org/) -->

<svg
   version="1.1"
   id="svg48"
   width="100mm"
   height="100mm"
   viewBox="0 0 377.95276 377.95274"
   sodipodi:docname="databear.svg"
   inkscape:version="1.2.1 (9c6d41e4, 2022-07-14)"
   xmlns:inkscape="http://www.inkscape.org/namespaces/inkscape"
   xmlns:sodipodi="http://sodipodi.sourceforge.net/DTD/sodipodi-0.dtd"
   xmlns="http://www.w3.org/2000/svg"
   xmlns:svg="http://www.w3.org/2000/svg">
  <defs
     id="defs52" />
  <sodipodi:namedview
     id="namedview50"
     pagecolor="#ffffff"
     bordercolor="#000000"
     borderopacity="0.25"
     inkscape:showpageshadow="2"
     inkscape:pageopacity="0.0"
     inkscape:pagecheckerboard="0"
     inkscape:deskcolor="#d1d1d1"
     showgrid="false"
     inkscape:zoom="0.82554322"
     inkscape:cx="275.57612"
     inkscape:cy="155.04942"
     inkscape:window-width="1415"
     inkscape:window-height="616"
     inkscape:window-x="0"
     inkscape:window-y="25"
     inkscape:window-maximized="0"
     inkscape:current-layer="g54"
     inkscape:document-units="mm" />
  <g
     inkscape:groupmode="layer"
     inkscape:label="Image"
     id="g54">
    <path
       style="fill:#060607;stroke:none;stroke-width:0.110934"
       d="m 191.22524,135.87566 v 0.10725 c -0.93987,0.25606 -0.76116,2.23637 -0.68603,2.94103 0.10002,0.93891 0.29949,1.96511 1.17512,2.5744 2.49421,1.73584 7.72005,0.21952 6.50776,-3.26235 0.52476,-0.42888 0.15577,-1.58632 0.0212,-2.14579 -0.5243,-2.18042 -3.13918,-2.85297 -5.18283,-2.09594 -0.50251,0.18613 -2.30437,1.26985 -1.83524,1.88136 m 3.32637,-2.0385 h 0.34411 l -0.45881,0.10725 0.1147,-0.10725 m -8.25857,1.28749 h 0.45881 v 0.10724 c -1.09335,0.1078 -1.23902,1.52921 -1.49113,2.36037 h -0.1147 c -0.32759,-0.84449 -0.96763,-2.34944 -1.76528,-2.88721 -0.41143,-0.27742 -1.51521,-0.35419 -1.70929,0.22045 -0.15795,0.46786 0.38528,1.02179 0.63086,1.37929 0.65254,0.95011 1.3481,1.90809 1.93044,2.89681 0.22287,0.37848 0.21668,0.90284 0.56916,1.18018 -0.12526,0.46381 -0.11275,1.37706 0.22229,1.77736 0.30924,0.3694 1.12133,0.31092 1.37872,-0.0906 0.36992,-0.57721 -0.20623,-1.95416 -0.13408,-2.65231 0.10988,-1.06334 0.89181,-2.37388 1.39719,-3.32597 0.20761,-0.39121 0.97726,-1.23555 0.57695,-1.60934 0.3027,-0.54442 -0.49838,-0.59047 -0.91704,-0.46641 -0.55482,0.1644 -0.8293,0.63757 -1.0329,1.11016 m 7.91446,-0.82255 c 0.0887,0 0.0184,0.0534 -0.0382,0.0357 l 0.0382,-0.0357 m -1.49113,0.21458 c 0.0887,0 0.0184,0.0534 -0.0382,0.0357 l 0.0382,-0.0357 m 8.02917,3.82664 v 0.10725 h -0.3441 c -0.15944,1.18019 -0.74718,2.81947 0.15989,3.85781 2.0791,2.37969 5.8785,0.47905 6.26344,-2.14118 l -0.80291,-0.42915 c 1.26264,0.49771 1.34224,-1.08262 1.69725,-1.93121 0.17193,-0.41096 0.55298,-1.05017 0.13798,-1.39476 v -0.10725 l 0.22941,-0.32188 c -1.2935,-0.53426 -1.80163,0.20368 -2.21399,1.28747 -0.52843,1.38907 -0.56755,3.57607 -1.61914,4.70638 -1.34569,1.44647 -2.47229,-0.94159 -2.32754,-2.02413 0.13283,-0.99364 0.80315,-2.24494 0.54025,-3.21869 0.96958,-0.44576 0.81748,-2.31514 -0.57351,-2.0385 -1.00353,0.19959 -1.04127,1.80244 -1.24579,2.57494 -0.0971,0.36673 -0.41029,0.96876 0.0988,1.0729 m -18.46709,-3.54055 -0.57351,0.32188 v -0.10725 l 0.57351,-0.21458 m 20.41704,0.10725 v 0.10725 h -0.45882 l 0.45882,-0.10725 m -14.68192,0.10725 v 0.10724 h -0.4588 l 0.4588,-0.10724 m 5.96499,0.26816 c 3.24252,-0.84614 3.53272,5.12078 1.14611,5.81161 -3.44578,0.99725 -3.85114,-5.10577 -1.14611,-5.81161 m 2.29359,-0.0536 0.45881,0.10725 v 0.10725 l -0.57351,-0.10725 0.1147,-0.10725 m 0.91762,0.21458 v 0.10724 h -0.34411 l 0.34411,-0.10724 m -10.43792,0.53644 0.34411,0.10725 v 0.10724 l -0.45881,-0.10724 0.1147,-0.10725 m 20.76114,0.10725 0.3441,0.10724 v 0.10725 l -0.45881,-0.10725 0.11471,-0.10724 m -10.55263,0.21459 0.34411,0.10724 v 0.10725 l -0.45881,-0.10725 0.1147,-0.10724 m -25.34923,1.71662 h 0.45881 v 0.10725 c -0.9003,0.14052 -0.7669,1.88572 -0.68822,2.57494 -0.93528,-0.69641 -1.68302,-1.9868 -2.84817,-2.37676 -0.61721,-0.20658 -1.78902,0.23802 -1.39214,0.98086 0.92278,1.72701 3.47754,2.34381 4.24031,4.29272 l 0.57352,-0.21457 -0.45881,0.32186 c 0.0921,0.48463 0.33034,1.30282 0.76139,1.62297 0.44,0.3267 1.29717,-0.0431 1.35739,-0.55201 0.10094,-0.8522 -0.78789,-1.79666 -0.84627,-2.6803 -0.11012,-1.66663 0.51294,-3.53907 0.90683,-5.1499 -0.96533,-0.84101 -1.86024,0.0481 -2.06464,1.0729 m 20.76114,-1.50205 -0.1147,0.10725 0.1147,-0.10725 m 14.10839,0 0.57352,0.10725 v 0.10725 l -0.68822,-0.10725 0.1147,-0.10725 m 1.03233,0.96559 v 0.21459 l -0.91762,-0.21459 h 0.91762 m -34.18132,0 -0.11471,0.10725 0.11471,-0.10725 m -0.34411,0.14306 c 0.0888,0 0.0184,0.0534 -0.0382,0.0357 l 0.0382,-0.0357 m 10.66732,0.17882 -0.1147,0.10725 0.1147,-0.10725 m 1.37643,0.10725 h 0.45881 v 0.10725 h -0.57351 l 0.1147,-0.10725 m 12.96138,0.10725 0.2294,0.10724 v 0.10725 l -0.2294,-0.21457 m -13.879,0.25034 c 0.0887,0 0.0184,0.0534 -0.0382,0.0357 l 0.0382,-0.0357 m -16.51714,0.50069 -0.45882,0.32186 v -0.10725 l 0.45882,-0.21457 m 5.0469,0 v 0.10724 h -0.45881 l 0.45881,-0.10724 m 18.12298,0.10724 h 0.57352 c -0.19408,0.19519 -0.5055,0.36135 -0.57352,0 m 10.55262,0.21458 -0.3441,-0.21458 0.3441,0.21458 m -3.32636,-0.10725 v 0.10725 h -0.34411 l 0.34411,-0.10725 m -1.26173,0.10725 0.34411,0.10725 v 0.10725 l -0.45881,-0.10725 0.1147,-0.10725 m 9.06149,0.32187 0.22941,0.32187 -0.22941,-0.32187 m -13.53488,0.42916 -0.11471,0.10725 0.11471,-0.10725 m 23.16988,4.50616 c 1.16951,-0.76723 1.35728,-2.11704 2.98227,-2.40125 1.40923,-0.24656 1.99559,0.70522 3.11646,1.20454 0.47762,0.21275 1.12248,-0.0174 1.37207,-0.44536 0.49793,-0.85381 -1.10711,-1.66503 -1.73567,-1.97369 -1.70494,-0.83736 -4.30674,-0.78502 -5.692,0.62131 -2.13037,2.16295 -2.42446,4.79809 0.30545,6.52792 0.54427,0.34482 2.1384,1.40334 2.8265,1.05873 0.36992,-0.18529 0.22103,-0.67452 -0.0132,-0.89823 -0.72389,-0.6917 -1.91725,-0.70725 -2.61258,-1.55773 -0.5024,-0.61477 -0.0879,-1.75322 -0.54931,-2.13624 m -30.16673,-4.07701 -0.45882,0.32187 v -0.10725 l 0.45882,-0.21457 m 33.95191,0.10724 0.34411,0.42917 -0.34411,-0.42917 m -13.99369,0.10725 0.45881,0.10725 v 0.10724 l -0.57352,-0.10724 0.11471,-0.10725 m -8.02917,0.25031 c 0.0887,0 0.0184,0.0534 -0.0382,0.0358 l 0.0382,-0.0358 m 21.44935,-0.0357 0.2294,0.10725 v 0.10725 l -0.2294,-0.21459 m -47.02799,0.21459 -0.45881,0.21458 v -0.10725 l 0.45881,-0.10725 m 19.95822,0.10725 -0.1147,0.10725 0.1147,-0.10725 m 14.3378,0.21457 -0.1147,0.10725 0.1147,-0.10725 m 13.07608,0.0357 c 0.0887,0 0.0184,0.0534 -0.0382,0.0358 l 0.0382,-0.0358 m -55.17186,7.15266 c 0.16047,1.61578 3.6589,-0.44547 4.30892,-1.05026 0.34651,-0.3224 0.23605,-0.85531 -0.29651,-0.90648 -1.14095,-0.10957 -1.8763,1.16612 -3.09479,0.88384 0.0966,-0.62023 -0.32793,-1.07396 -0.60758,-1.61094 -0.6335,-1.21603 -1.27835,-2.47732 -2.00717,-3.64194 -0.29422,-0.46994 -0.7193,-0.71327 -1.28341,-0.46264 -0.83629,0.37176 -0.58142,1.01592 -0.24546,1.63853 0.60918,1.12879 1.34408,2.19588 1.95545,3.32597 0.32472,0.60018 0.66688,1.43618 1.27055,1.82392 m 37.39299,-6.97382 h 0.57352 v 0.10725 h -0.68822 l 0.1147,-0.10725 m -30.85495,0.14302 c 0.0887,0 0.0184,0.0534 -0.0382,0.0358 l 0.0382,-0.0358 m 24.31692,-0.0357 -0.11471,0.10725 0.11471,-0.10725 m -0.22941,0.32186 -0.1147,0.10725 0.1147,-0.10725 m -33.49311,0.10725 v 0.10725 l -0.45881,0.10725 0.45881,-0.21459 m 0.45881,0.0357 c 0.0887,0 0.0184,0.0534 -0.0382,0.0358 l 0.0382,-0.0358 m 43.24281,0.39345 v 0.10725 h -0.3441 l 0.3441,-0.10725 m -32.57548,0.85832 -0.1147,0.10725 0.1147,-0.10725 m 0.91762,0 -0.11471,0.10725 0.11471,-0.10725 m 42.5546,0.10725 -0.11471,0.10725 0.11471,-0.10725 m -55.86008,5.47177 c -0.89457,-0.48882 -1.82285,-0.89148 -2.75286,-1.31517 -0.60414,-0.27519 -1.20139,-0.54438 -1.83524,-0.75638 -0.81507,-0.27252 -3.31329,-0.6388 -2.72338,0.99865 0.26978,0.74888 1.04528,1.41869 1.54711,2.04269 0.9682,1.20399 1.83879,2.6524 2.99568,3.70438 0.49529,0.4505 1.29694,0.12332 1.4269,-0.49032 0.0835,-0.39374 -0.28171,-0.7787 -0.51123,-1.07247 -0.30649,-0.39214 -0.62547,-0.76669 -0.89973,-1.18018 -0.41992,-0.63301 -0.88171,-1.24027 -1.37654,-1.82392 0.52247,0.20342 1.92413,1.12612 2.40875,0.75102 h 0.1147 c 0.35099,1.04994 3.25067,1.83584 4.0927,0.94265 0.32277,-0.34225 0.21702,-0.69137 -0.008,-1.04994 -0.53303,-0.84993 -1.33571,-2.89328 -2.36436,-3.21868 0.12204,-0.83096 -1.68624,-3.88924 -2.76502,-2.55049 -0.43473,0.53957 -0.0423,1.11658 0.2926,1.58489 0.80831,1.13008 1.5447,2.30553 2.35771,3.43327 m 29.01971,-4.99669 c -4.37589,0.58612 -7.3382,3.48304 -10.66732,5.96186 -2.6947,2.00642 -5.67834,3.68883 -8.48798,5.54997 -1.28673,0.85242 -2.58746,1.69786 -3.89988,2.51508 -0.82792,0.51554 -1.8014,1.02784 -2.23005,1.91329 -0.42554,0.87893 -0.25349,2.16233 -0.29788,3.1114 -0.0905,1.93272 -0.35604,3.86125 -0.44986,5.79363 -0.0526,1.08503 0.1818,2.87772 -0.61744,3.74548 -1.02693,1.11495 -3.1261,0.81733 -4.54864,1.00745 -3.60269,0.48152 -7.05225,1.11292 -10.55263,2.05373 -1.33903,0.35996 -3.86983,0.53034 -4.51193,1.88347 -0.44803,0.94405 0.21656,2.07208 1.07098,2.58826 1.37757,0.83234 3.70064,0.36028 4.57318,1.91822 0.43644,0.77924 -0.35317,1.77371 -0.68523,2.46766 -0.54438,1.13791 -0.84811,2.74328 -0.4712,3.96972 0.19878,0.64663 0.73146,1.13629 1.0719,1.71673 0.75783,1.29187 1.37849,2.41594 2.47986,3.5221 0.73628,0.73965 1.95648,1.21698 2.23291,2.27142 0.6701,2.55575 -1.49732,5.02748 -1.62659,7.51027 -0.0666,1.28125 -0.29983,3.05152 -0.054,4.29158 0.14006,0.70681 0.69086,1.31397 0.7731,2.03849 0.0905,0.79727 -0.49804,1.55238 -0.43748,2.36037 0.0611,0.81422 0.72538,1.46944 0.91487,2.25308 0.245,1.01239 -0.0599,2.08753 0.1771,3.1114 0.35168,1.52029 1.18878,2.66796 1.76321,4.077 0.30751,0.75436 -0.15921,1.61053 0.19533,2.35876 0.32048,0.67678 1.14164,0.88063 1.70976,1.32438 0.50044,0.39075 0.81003,0.92119 1.27285,1.34079 0.5258,0.47669 1.1843,0.76541 1.6508,1.30658 1.5455,1.79291 3.01059,3.90801 4.94425,5.3649 0.57844,0.43582 1.37138,0.46317 1.99697,0.82677 1.20254,0.69879 2.12107,1.73102 3.44107,2.2651 0.63304,0.25577 1.34293,0.10643 1.94994,0.37058 0.69968,0.30362 1.21814,0.95058 1.94994,1.18233 0.8808,0.27787 1.75334,-0.28217 2.63816,-0.074 0.88126,0.20707 1.927,0.49138 2.75285,0.84115 0.6288,0.26715 1.24303,0.73278 1.94994,0.78643 0.87645,0.0665 1.67558,-0.38303 2.52346,-0.47423 0.93253,-0.0998 1.80151,0.5461 2.75286,0.44634 1.76962,-0.18562 3.36078,-1.05466 5.1616,-1.21774 0.67526,-0.0612 1.39857,-0.18025 2.06465,-0.029 0.72125,0.16308 1.4082,0.64159 2.17934,0.5225 0.63052,-0.0976 1.15139,-0.60189 1.72054,-0.85295 0.52121,-0.22853 1.15299,-0.23388 1.72054,-0.28432 2.38592,-0.21242 4.83172,0.0762 7.22625,-0.0225 0.89973,-0.0365 1.74176,-0.38411 2.63815,-0.42059 0.76209,-0.0311 1.54321,0.22961 2.29405,0.13301 0.95135,-0.12238 1.56202,-0.99714 2.122,-1.64357 0.78284,-0.90359 1.71836,-1.86125 2.81021,-2.44095 1.03278,-0.54835 2.30483,0.12537 3.21121,-0.49824 1.14576,-0.78815 1.25346,-2.19075 2.14183,-3.16215 0.3877,-0.4239 0.95261,-0.67012 1.31656,-1.11388 0.37645,-0.45919 0.47211,-1.07975 0.78078,-1.57834 0.49035,-0.7919 1.23637,-1.42952 1.67695,-2.25308 0.86761,-1.62178 1.43343,-3.39881 2.22477,-5.0426 0.39136,-0.81294 1.37666,-1.24584 1.59505,-2.1459 0.39549,-1.63047 -0.65736,-3.28927 -0.42302,-4.9352 0.14624,-1.02688 0.99619,-1.67822 1.0103,-2.78953 0.0319,-2.5037 -0.31142,-5.00924 -0.3432,-7.51026 -0.0123,-0.96003 0.31245,-1.86244 0.32266,-2.78953 0.0106,-0.94736 -1.02865,-2.03904 -0.8184,-2.89671 0.25085,-1.02365 1.74359,-1.42222 2.55993,-1.97691 1.33387,-0.90649 2.83888,-2.45006 3.6231,-3.81683 0.68512,-1.19446 -0.0296,-2.29824 0.30546,-3.47876 0.22252,-0.78245 1.07935,-1.36396 1.09541,-2.20759 0.0149,-0.80982 -0.91074,-1.57897 -0.34641,-2.34169 1.22158,-1.65161 6.4784,-0.3988 5.77871,-3.66651 -0.44848,-2.09912 -3.77944,-2.34492 -5.59059,-2.54062 -3.87041,-0.41832 -7.67153,-1.24476 -11.51842,-1.81114 -1.26953,-0.1869 -3.31295,0.0966 -4.35697,-0.64342 -1.44089,-1.02119 -0.91934,-2.88813 -0.91934,-4.339 0,-1.3997 -0.14969,-2.78298 -0.11298,-4.1843 0.0547,-2.09289 0.25292,-3.75856 -0.58269,-5.79363 -1.17088,-2.85165 -4.84113,-3.89964 -7.3335,-5.51252 -4.96088,-3.21054 -9.49782,-7.34783 -15.25542,-9.19461 -2.26595,-0.72678 -4.8011,-1.34327 -7.22626,-1.0185 m -30.96964,0.59782 v 0.10725 l -0.45881,0.10724 v -0.10724 l 0.45881,-0.10725 m 14.79661,0.32186 -0.1147,0.10725 0.1147,-0.10725 m 42.784,0.21458 -0.1147,0.10725 0.1147,-0.10725 m -0.91762,0.14302 c 0.0887,0 0.0184,0.0534 -0.0382,0.0358 l 0.0382,-0.0358 m 2.86756,15.62853 c -1.44112,0.65984 -3.79206,0.79417 -5.39101,0.85832 v 0.10725 c 1.88869,0 3.68779,-0.29643 5.50571,-0.75103 0.51731,1.28995 0.45881,2.72162 0.45881,4.07701 l -1.37643,0.10724 c 0,-0.41477 -0.66148,-0.46552 -1.03232,-0.51853 -0.84249,-0.12047 -2.55086,-0.30159 -2.63815,0.73311 l -2.49776,0.0732 -1.28731,-0.75629 -1.2834,0.75629 -2.61659,0.0341 c -0.23228,-1.0731 -3.07265,-1.31429 -3.86341,-0.59717 -0.32438,0.29408 -0.26554,0.74813 -0.26588,1.13362 l -2.29405,-0.64374 v -0.10725 h 0.68821 c -1.05159,-0.82805 -2.42022,-0.87838 -3.67047,-0.42915 l 0.1147,-0.21458 h -0.1147 l -0.34411,1.07288 h -1.14703 v 0.10725 h 1.14703 v 2.25308 c -0.59645,-0.15686 -1.65447,-0.17016 -2.03884,-0.67368 -0.54782,-0.71755 -0.39457,-2.30564 -1.40717,-2.64168 -1.04895,-0.34815 -0.98242,0.7124 -1.63519,0.99758 -0.61986,0.27069 -1.90636,-0.0426 -2.60386,-0.0426 0.0961,-0.43699 0.0382,-0.8067 -0.46099,-0.99329 -0.89824,-0.3356 -2.36345,-0.081 -3.32419,-0.0796 -0.38758,4.3e-4 -0.89009,-0.0472 -1.21195,0.19934 -0.28239,0.21618 -0.27115,0.56391 -0.27918,0.87354 h -0.68822 v 0.10725 l 2.63816,0.10724 v 1.0729 l -1.26173,0.21458 v 0.10724 h 1.26173 v 1.18019 c -0.93506,-0.11052 -2.93489,0.22692 -3.69434,-0.32059 -0.47154,-0.33978 -0.70863,-1.72232 -0.89376,-2.25436 h 1.49113 l -1.72053,-0.53645 v -0.10725 h 0.68821 v -0.10725 l -1.60583,-0.48076 -1.72054,0.58805 v 0.10725 h 0.57351 v 0.10725 l -4.01458,-0.36639 -2.17935,-0.58097 -6.42333,0.0891 c -0.16907,-0.86776 0.25108,-1.10702 1.14702,-1.18019 l -0.80292,-2.57495 11.58495,0.10724 c -2.50384,-0.69222 -5.5391,-0.25266 -8.14388,-0.65231 -0.53221,-0.0816 -2.38454,-0.0564 -2.55189,-0.65962 -0.21966,-0.79093 2.08919,-1.77585 2.6666,-2.09987 3.17462,-1.78185 6.27388,-3.69107 9.17619,-5.84578 2.77442,-2.05962 5.56961,-4.82362 8.94679,-5.97172 6.18476,-2.10245 12.45691,2.01168 17.32007,5.10719 1.34029,0.85306 2.69539,1.68487 4.01458,2.56669 2.07795,1.38885 4.1629,2.76753 6.19393,4.21701 1.19382,0.85209 2.44878,1.7059 2.86756,3.12384 m 10.32322,-15.48917 c -0.73134,0.1574 -1.35532,0.72206 -1.95166,1.11785 -1.27595,0.84683 -2.54479,1.7221 -3.78346,2.61497 -0.43713,0.31521 -1.80966,0.86261 -1.28949,1.52748 1.02544,1.31076 2.23968,-0.72217 3.23943,-0.13423 0.40937,0.24075 1.30061,0.68161 1.42024,1.15594 0.15393,0.61046 -0.83136,2.95035 0.97165,2.62204 0.51811,-0.0943 0.83824,-1.57222 1.01259,-1.99806 0.67594,-1.65128 1.88709,-3.7327 2.1462,-5.47164 0.12158,-0.81605 -0.92439,-1.61536 -1.7655,-1.43436 m -65.15098,0.0395 -0.3441,0.21457 v -0.10725 l 0.3441,-0.10724 m 52.76312,0.143 0.0382,0.0358 c -0.0565,0.0176 -0.12686,-0.0358 -0.0382,-0.0358 m -52.1896,0.10725 0.0382,0.0358 c -0.0566,0.0176 -0.12686,-0.0358 -0.0382,-0.0358 m 26.26685,1.57362 h 4.4734 v -0.10725 l -0.34411,-0.10725 v -0.10724 h 0.68821 c -1.01764,-0.7579 -4.00816,-0.72067 -4.8175,0.32186 m 4.01458,-0.42915 v 0.10725 h -1.37642 l 1.37642,-0.10725 m -33.7225,0.10725 -0.57352,0.42915 v -0.10725 l 0.57352,-0.32186 m 30.62554,0.0357 c 0.0887,0 0.0184,0.0534 -0.0382,0.0358 l 0.0382,-0.0358 m 0.80292,-0.0357 v 0.10724 h -0.57351 l 0.57351,-0.10724 m 0.57351,0 v 0.10724 h -0.45881 l 0.45881,-0.10724 m 36.24596,0.10724 0.11471,0.21458 -0.11471,-0.21458 m -2.63815,0.32187 0.2294,0.21458 v 0.10724 l -0.2294,-0.32186 m -60.56288,0.14302 0.0382,0.0358 c -0.0566,0.0176 -0.12686,-0.0358 -0.0382,-0.0358 m 51.38668,0.0715 -0.1147,0.10725 0.1147,-0.10725 m -29.70804,0.18165 c -1.94891,0.39193 -1.94202,3.27759 -2.94865,4.53899 -0.79868,1.00068 -2.13519,1.51096 -3.24516,2.14632 -0.28561,0.16352 -1.11548,0.5416 -1.04139,0.94071 0.0687,0.36951 0.99906,0.23904 1.27079,0.23904 0.30534,0 0.61332,0.01 0.91762,-0.0183 2.55982,-0.23164 5.00172,-1.61858 5.88435,-3.95147 0.28435,-0.75145 0.87644,-4.24008 -0.83756,-3.89537 m 37.73721,0.033 0.34411,0.32188 v 0.10725 l -0.34411,-0.42917 m 2.75286,0.10725 -0.80292,2.25306 -1.26172,-0.96559 2.06464,-1.28747 m -71.57431,0.21457 -0.45881,0.32187 v -0.10725 l 0.45881,-0.21458 m -1.83524,0.10725 -0.1147,0.10725 0.1147,-0.10725 m 2.52346,0.0357 0.0382,0.0358 c -0.0565,0.0176 -0.12686,-0.0358 -0.0382,-0.0358 m 5.0469,-0.0357 -0.2294,0.32187 0.2294,-0.32187 m 66.298,0 0.11471,0.21458 h -0.22941 l 0.1147,-0.21458 m -1.60583,0.14302 c 0.0887,0 0.0184,0.0534 -0.0382,0.0358 l 0.0382,-0.0358 m -59.87466,0.0715 -0.11471,0.10725 0.11471,-0.10725 m 20.99054,0.10725 c -0.12744,0.54621 -0.31681,0.91325 -0.91762,1.0729 0.036,-0.61498 0.27574,-0.91475 0.91762,-1.0729 m 6.88214,3.1114 c 0.53991,-0.94855 0.66447,-1.93518 -0.80291,-1.60935 l 0.3441,-1.18018 c -1.76676,-0.30566 -1.15127,0.61294 -0.57443,1.53273 0.34835,0.55544 0.28756,1.014 1.03324,1.2568 m 29.93734,-2.89682 0.2294,0.32188 -0.2294,-0.32188 m 3.09696,0 0.45881,0.21457 v 0.10725 c -0.29719,0.008 -0.4689,-0.0194 -0.45881,-0.32188 m -7.91447,0.10725 -0.1147,0.10725 0.1147,-0.10725 m 4.01459,0 v 0.21459 l -0.22941,-0.21459 h 0.22941 m -68.36264,0.21459 -0.22941,0.21458 0.22941,-0.21458 m 1.03232,0.21458 -0.45881,0.42915 v -0.10725 l 0.45881,-0.32186 m 68.01853,0.0357 c 0.0887,0 0.0184,0.0534 -0.0382,0.0358 l 0.0382,-0.0358 m -65.30387,0.35771 -0.0383,0.0714 0.0383,-0.0714 m 74.59477,3.68357 h 0.1147 l -0.45881,2.57495 h 0.45881 v 0.10725 c -1.32298,0.0964 -1.61868,4.38535 0.22952,4.36754 0.59381,-0.005 1.18591,-0.68837 1.59712,-1.03299 1.09942,-0.92129 2.2063,-1.82574 3.3407,-2.70734 0.45996,-0.35748 1.25141,-0.811 1.41543,-1.37866 0.19041,-0.65447 -0.62168,-1.35411 -1.30646,-1.20037 -0.79833,0.17918 -1.64368,1.14242 -2.22752,1.65795 -0.6366,0.5607 -1.27274,1.12128 -1.90177,1.68863 0.31876,-1.5367 0.67858,-3.09273 1.07477,-4.61344 0.17779,-0.68054 0.44734,-1.60656 -0.039,-2.2209 -0.43071,-0.54332 -1.09289,-0.80574 -1.71939,-0.39171 -1.46372,0.96743 -2.74001,2.63245 -3.89243,3.90545 -0.4166,0.46015 -1.24303,0.97257 -1.34569,1.60396 -0.11011,0.67679 0.83378,1.19425 1.42725,0.85478 1.09391,-0.62592 2.60248,-2.1812 3.23277,-3.21514 m -76.50652,-3.32598 -0.3441,0.32188 0.3441,-0.32188 m 30.39615,0.21459 -0.80292,0.53644 c 0.0813,-0.46618 0.30499,-0.62324 0.80292,-0.53644 m -40.03115,1.9312 v 0.10725 c -1.16744,0.12687 -1.35452,1.79592 -1.29304,2.68225 0.0257,0.37164 0.0476,1.01592 0.49012,1.07289 -0.13844,0.86239 0.58304,1.63338 1.2131,2.20308 2.52792,2.2858 6.69701,0.45813 7.26869,-2.63225 0.20188,-1.09145 -0.34101,-3.33326 -1.71434,-3.54055 v -0.10724 l 0.2294,-0.10725 c -1.27629,-1.54755 -3.66291,-1.96748 -5.39101,-0.82259 -0.26497,0.17552 -1.54057,1.06077 -0.80292,1.14445 m 77.99765,-1.71662 0.45881,0.10725 v 0.10724 l -0.57352,-0.10724 0.11471,-0.10725 m -68.24794,0.10725 -0.11471,0.10724 0.11471,-0.10724 m 65.03627,0 -0.1147,0.10724 0.1147,-0.10724 m -16.28774,7.29567 v -0.10724 c -0.6319,-0.20214 -1.89237,-0.7109 -0.68822,-1.18019 v -0.10724 c -0.86233,0 -3.66165,-0.43807 -1.60583,-1.28748 v -0.10724 c -1.11353,0 -1.70448,-0.0497 -2.63816,-0.64375 v -0.10724 l 0.34411,-0.21458 v -0.10725 c -0.45158,-0.28238 -1.03989,-0.32723 -1.46498,-0.6269 -0.5789,-0.40812 -0.92748,-1.72928 -0.94377,-2.37721 l 0.68821,-0.10724 c -1.98699,-0.77817 -0.70805,3.00732 -0.34755,3.75512 0.40949,0.84931 1.36095,1.13556 2.18279,1.52985 1.53931,0.73858 2.65605,1.8089 4.4734,1.68884 m 28.21679,-6.86653 -0.2294,0.21458 0.2294,-0.21458 m -83.50336,0.10725 -0.34411,0.32188 0.34411,-0.32188 m 5.96453,0 -0.34411,0.21459 v -0.10725 l 0.34411,-0.10724 m 79.25937,0.21459 -0.11471,0.10724 0.11471,-0.10724 m -85.68271,0.10724 -0.45881,0.32187 v -0.10725 l 0.45881,-0.21458 m 1.26173,0.21458 -0.34411,0.21458 v -0.10725 l 0.34411,-0.10725 m -3.78518,0.32187 v 0.21457 h -0.22941 l 0.22941,-0.21457 m 5.73512,0.10725 v 0.10724 h -0.34411 l 0.34411,-0.10724 m 79.83288,0 0.1147,0.21457 -0.1147,-0.21457 m -83.50382,0.15063 c 2.93214,-0.58366 5.60276,4.74681 1.9504,5.47703 -2.99086,0.59791 -5.52705,-4.76505 -1.9504,-5.47703 m -1.60537,0.17124 -0.11471,0.10725 0.11471,-0.10725 m 86.14151,0.10725 0.34411,0.53644 -0.34411,-0.53644 m -86.71503,0.10725 -0.3441,0.21457 v -0.10724 l 0.3441,-0.10725 m 6.30864,0.21458 -0.22941,0.21457 0.22941,-0.21457 m 79.14467,0.10724 0.3441,0.32187 v 0.10725 l -0.3441,-0.42916 m -75.01539,0.21458 -0.1147,0.10725 0.1147,-0.10725 m -4.58809,0.42917 -0.45881,0.32186 v -0.10725 l 0.45881,-0.21457 m 81.20931,0 0.1147,0.21457 h -0.2294 l 0.1147,-0.21457 m -3.32637,0.10724 0.1147,0.21458 -0.1147,-0.21458 m -84.68858,0.17885 -0.0383,0.0714 0.0383,-0.0714 m 85.7209,-0.0715 0.34411,0.42915 -0.34411,-0.42915 m -0.1147,0.53644 -0.1147,0.10724 0.1147,-0.10724 m 6.65274,0.21457 0.2294,0.53646 h -0.1147 l -0.1147,-0.53646 m -90.84432,0.96561 -0.1147,0.10725 0.1147,-0.10725 m 88.55027,1.18018 0.45881,0.42917 v 0.10725 c -0.3097,-0.11011 -0.50928,-0.20965 -0.45881,-0.53646 m -52.64841,0.42917 v 0.10725 c 3.68688,0.82109 7.62599,0.35834 11.35554,0.35834 1.41176,0 2.82329,0.1781 4.24399,0.1781 -1.34718,-0.56574 -3.14594,-0.34633 -4.5881,-0.43871 -3.66336,-0.23474 -7.34979,-0.20502 -11.01143,-0.20502 m 50.35436,-0.10725 -0.1147,0.10725 0.1147,-0.10725 m -80.8652,0.10725 -0.1147,0.10725 0.1147,-0.10725 m 84.19157,0.21457 -0.1147,0.10725 0.1147,-0.10725 m -87.28854,0.42916 -0.1147,0.10724 0.1147,-0.10724 m -1.49113,0.10724 -0.57351,0.53646 v -0.10725 l 0.57351,-0.42916 m 31.42846,0.53645 v 0.10725 c 2.69815,0.62175 5.73834,0.46455 8.48798,0.46563 4.0974,10e-4 8.26167,-0.0365 12.38786,-0.0365 -1.91805,-0.75284 -4.93633,-0.42915 -6.99685,-0.42915 -3.01231,0 -6.06511,0.26264 -9.06148,0.18679 -1.611,-0.0408 -3.19057,-0.29408 -4.81751,-0.29408 m 55.40127,0 0.1147,0.21457 -0.1147,-0.21457 m -84.99449,0.75102 -0.1147,0.10724 0.1147,-0.10724 m 27.98739,1.93121 v 0.10725 h 1.03232 l -1.03232,-0.10725 m 6.65274,1.0729 c 0.23044,0.64931 1.64678,0.49482 2.29405,0.58161 2.49306,0.33389 5.16459,0.2767 7.68506,0.2767 -0.45663,-0.56873 -1.80668,-0.62936 -2.52345,-0.74233 -2.46037,-0.38774 -4.96948,-0.11597 -7.45566,-0.11597 m -17.32007,0.75103 v 0.42915 l 4.5881,0.32187 c -0.83779,-0.73728 -3.44876,-0.74223 -4.5881,-0.75102 m 38.54002,0.21458 v 0.10724 h 0.2294 v 0.10725 l -1.94994,0.21458 v 0.10725 c 1.98573,0.34997 3.9632,0.0961 5.96453,0.22412 1.57257,0.10071 3.12816,0.50899 4.7028,0.52648 0.90695,0.01 3.00451,0.14849 3.09696,-0.96518 l -12.04375,-0.32187 m -20.99055,1.75236 c 0.0887,0 0.0184,0.0534 -0.0382,0.0358 l 0.0382,-0.0358 m 12.73197,-0.0357 -0.1147,0.10724 0.1147,-0.10724 m -28.5609,0.53645 v 0.64374 c -0.99068,0.33774 -2.07003,0.1737 -3.09696,0.0455 -0.30121,-0.0376 -0.93368,0.0176 -0.9697,-0.38164 -0.04,-0.44471 0.48221,-0.60649 0.85511,-0.64577 0.93322,-0.0984 2.35082,-0.001 3.21155,0.33818 m 35.44305,-0.42915 v 0.10724 h -0.34411 l 0.34411,-0.10724 m -20.87584,0.10724 -0.1147,0.10725 0.1147,-0.10725 m 0.2294,0 -0.1147,0.10725 0.1147,-0.10725 m 21.10525,0 v 0.10725 h -0.34411 l 0.34411,-0.10725 m 11.35554,0 -0.11471,0.10725 0.11471,-0.10725 m -35.67245,0.10725 v 0.10725 h 0.3441 l -0.3441,-0.10725 m 0.53531,0.0357 0.0764,0.0358 -0.0764,-0.0358 m -8.90859,0.28614 -0.1147,0.10724 0.1147,-0.10724 m 5.39101,0.42915 -0.1147,0.53645 c -1.5837,0 -2.58161,0.41746 -3.55578,-0.9656 l 3.67048,0.42915 m 9.635,-0.32186 v 0.10724 h -0.57351 l 0.57351,-0.10724 m 16.05834,0 -0.1147,0.10724 0.1147,-0.10724 m 14.56721,0 -0.1147,2.36036 h -0.68822 c 0.47694,-0.85145 0.47258,-1.32234 0.34411,-2.25308 l 0.45881,-0.10724 m -44.84865,0.9656 -2.63815,-0.10724 c 0.10163,-1.21957 2.13576,-0.5151 2.63815,0.10724 m 24.54632,-0.75103 v 0.10725 h -0.3441 l 0.3441,-0.10725 m 0.22941,0 -0.1147,0.10725 0.1147,-0.10725 m 10.20851,0.10725 c -0.30912,1.38339 -1.08875,2.15931 -2.74265,1.88797 -0.3035,-0.0497 -0.51822,-0.28441 -0.8176,-0.35233 -0.98162,-0.22263 -1.84934,0.33045 -1.94546,-0.8919 l 4.7028,0.32187 -1.37643,-0.24527 -3.32637,-0.29117 c 0.20405,-0.57519 0.92565,-0.42133 1.47335,-0.41554 1.36106,0.0142 2.66236,-0.11475 4.03236,-0.0136 m 9.06149,-0.10725 -0.1147,0.10725 0.1147,-0.10725 m -26.49625,0.21459 -0.62158,1.27492 -2.9342,-0.0946 -0.91441,-0.1721 -0.003,-1.11548 4.4734,0.10725 m 1.37643,-0.10725 -0.1147,0.10725 0.1147,-0.10725 m 20.99054,0 v 1.82391 c -1.50111,-0.17745 -2.24025,-0.15857 -2.52345,-1.71662 l 2.52345,-0.10725 m -16.40245,1.28747 v -0.10725 h 0.45881 v -1.07289 c 0.3495,0.0413 1.02923,0.005 1.30669,0.21757 0.96144,0.73397 -1.39971,1.00563 -1.7655,0.96261 m 19.61412,-0.42916 -1.83524,0.10724 v -0.8583 c 0.79913,0 1.63864,-0.14947 1.83524,0.75102 m -30.51085,-0.608 0.0382,0.0358 c -0.0565,0.0176 -0.12686,-0.0358 -0.0382,-0.0358 m 14.45251,4.14855 0.2294,-0.85831 -0.3441,-0.10725 c 0.38895,-0.74566 -0.52913,-0.88235 -0.55195,-1.5116 -0.0173,-0.47659 0.51547,-0.96303 0.55195,-1.49251 l 1.02911,0.17199 0.11791,0.79362 -0.11791,2.83212 -0.91441,0.17198 m -34.95625,-3.79771 c 0.65908,-0.28764 2.70732,-0.21855 3.40047,-0.0181 0.4455,0.12878 0.68913,0.95156 0.2052,1.17622 -0.68214,0.31662 -2.60329,-0.0646 -3.28783,-0.31757 -0.33987,-0.12565 -0.88046,-0.59482 -0.31784,-0.84051 m 36.79149,0.14989 -0.11471,0.10724 0.11471,-0.10724 m -31.42847,0.10724 2.98227,0.53644 v 0.75103 l -3.09697,-0.10724 -0.2294,-0.64375 v -0.10724 l 0.3441,-0.42916 m 21.67876,0 -0.1147,0.10725 0.1147,-0.10725 m 9.97911,0 -0.1147,0.10725 0.1147,-0.10725 m 7.45566,0.0357 0.0382,0.0358 c -0.0565,0.0176 -0.12685,-0.0358 -0.0382,-0.0358 m -17.89358,0.0715 0.22941,0.64373 h -0.45881 l 0.2294,-0.64373 m 17.54947,0 0.1147,0.75102 h -0.45881 l 0.34411,-0.75102 m 6.65274,0.21458 c -0.44022,0.4504 -0.97405,0.53119 -1.60583,0.53644 l 0.1147,-0.64373 1.49113,0.10725 m -38.76942,0 0.22941,0.75103 v 0.10725 l -0.45881,-0.21458 c -0.31669,0.80574 -1.22342,0.4432 -1.94994,0.42915 l -0.1147,-0.96561 2.29404,-0.10724 m 0.57352,0.0357 0.0382,0.0358 c -0.0565,0.0176 -0.12686,-0.0358 -0.0382,-0.0358 m 1.49113,0.17885 0.1147,1.07289 h -1.14702 l 0.3441,-1.28747 0.68822,0.21458 m 11.47024,-0.17885 c 0.0887,0 0.0184,0.0534 -0.0382,0.0358 l 0.0382,-0.0358 m 17.43477,0 0.0382,0.0358 c -0.0565,0.0176 -0.12686,-0.0358 -0.0382,-0.0358 m -28.67561,0.17885 -0.1147,0.10724 0.1147,-0.10724 m 12.73197,0 -0.1147,0.10724 0.1147,-0.10724 m 0.22941,0 -0.11471,0.10724 0.11471,-0.10724 m 5.73512,0 -0.1147,0.10724 0.1147,-0.10724 m 0.2294,0 -0.1147,0.10724 0.1147,-0.10724 m 11.24084,0 -0.1147,0.10724 0.1147,-0.10724 m 0.2294,0 -0.1147,0.10724 0.1147,-0.10724 m -31.54316,0.10724 -0.1147,0.10725 0.1147,-0.10725 m 19.0406,0 -0.1147,0.10725 0.1147,-0.10725 m 4.47339,0 v 0.10725 h -0.3441 l 0.3441,-0.10725 m 6.88215,0.0357 0.0382,0.0358 c -0.0566,0.0176 -0.12686,-0.0358 -0.0382,-0.0358 m -23.6287,0.0715 -0.1147,0.10725 0.1147,-0.10725 m 4.8175,0.21459 -0.1147,1.18018 v 0.10725 l -0.34411,-0.10725 c -0.21701,1.34327 -2.31251,0.85831 -3.44107,0.85831 v -2.25308 l 3.89988,0.21458 m 23.6287,-0.10725 -0.1147,0.10725 0.1147,-0.10725 m -44.50454,0.53645 0.22941,0.42916 -0.34411,0.75103 c -1.28731,-0.2236 -3.81064,0.20846 -4.12929,-1.28747 1.31163,-0.59375 2.87261,-0.0548 4.24399,0.10724 m 27.18448,-0.42916 0.2294,0.10724 v 0.10725 l -0.2294,-0.21457 m -5.73513,0.10724 v 0.10725 h -0.3441 l 0.3441,-0.10725 m 1.83524,0.53646 h -1.14702 l 0.1147,-0.42917 1.03232,0.42917 m -18.81119,-0.21458 c -0.13157,1.50505 -1.82687,1.07213 -3.09697,1.0729 v -1.18019 l 3.09697,0.10725 m 0.80292,-0.10725 -0.11471,0.10725 0.11471,-0.10725 m 26.84036,2.36037 c 0.0942,1.60945 4.28976,1.5941 4.12929,0 h 1.03232 c 0.002,0.13776 -0.0129,0.29676 0.017,0.43345 0.31108,1.42566 1.29614,-0.1795 1.73545,-0.36876 0.39894,-0.17177 1.02796,-0.0647 1.45924,-0.0647 v -0.10725 l -1.49113,-0.10725 c 0.19741,-1.36514 2.16478,-0.76508 2.40875,0.32188 l -2.29404,0.10725 v 0.10725 c 0.74809,0.13191 1.56798,0.0875 2.29404,0.24826 0.36786,0.0815 0.65083,0.40319 1.03233,0.42433 0.39102,0.0215 0.73879,-0.24762 1.14702,-0.23549 0.38299,0.0109 0.76988,0.29665 1.1453,0.2253 0.36739,-0.0699 0.56583,-0.43023 0.92955,-0.52099 0.62043,-0.15493 1.55445,-0.16587 1.71033,0.50232 l -1.94994,0.21459 v 0.10724 c 0.89605,-0.036 3.41675,0.10221 3.21167,-1.07289 l 0.3441,1.50205 c -1.3817,-0.30771 -2.84943,-0.016 -4.24399,-4.5e-4 -3.98912,0.0444 -7.68368,0.50308 -11.58494,1.18062 v 0.10724 l 7.91447,-0.64374 4.12928,0.21458 2.86756,-0.32187 0.80292,-0.32186 h 0.1147 c 0,0.74995 0.16529,1.68712 -0.25555,2.36026 -0.56663,0.90616 -1.82526,1.26849 -2.84141,1.54764 -2.60294,0.7153 -5.25096,0.59557 -7.91447,0.88943 -2.76329,0.30504 -5.70358,0.13798 -8.48798,0.13798 -5.94617,0 -11.8514,-0.18217 -17.77887,-0.42497 -2.57668,-0.10548 -5.11791,-0.26576 -7.68507,-0.52283 -1.38801,-0.13904 -2.9709,-0.18593 -4.24399,-0.76882 v -0.10725 h 4.12929 v -0.10725 l -4.9322,-0.64373 c -0.46145,0.64663 -2.36195,-0.15847 -3.09697,-0.21457 0,-0.42724 -0.21093,-1.52867 0.18387,-1.82092 0.58384,-0.43216 2.64584,0.0552 3.37191,0.10152 3.08366,0.19699 6.08542,0.34141 9.17619,0.21726 v -0.10724 c -3.29723,0 -6.69919,-0.0669 -9.97911,-0.47464 -0.81255,-0.10112 -1.61111,-0.0943 -2.40657,-0.31865 -0.33241,-0.0936 -0.7591,-0.38496 -0.45732,-0.75136 0.18995,-0.23056 0.64337,-0.17917 0.91395,-0.16242 0.92278,0.0574 1.8256,0.0879 2.75286,0.0981 3.70879,0.0412 7.54891,0.85532 11.24084,0.21416 v -0.10725 h -2.75286 l 0.57351,-1.28747 c 0.70358,0.0833 1.6001,0.0582 2.26789,0.2487 0.40491,0.11556 0.42968,0.62367 0.74052,0.86099 0.75314,0.5754 1.14886,-0.15236 1.00617,-0.78783 h 2.98227 c 0.0944,1.61138 1.4901,0.82506 1.49113,-0.42915 h 3.09696 c -0.13466,0.44181 -0.56766,1.26655 0.23159,1.41279 1.23706,0.22638 0.84696,-1.8177 1.83524,-1.92532 0.42944,-0.0467 1.21274,-0.10752 1.52026,0.22477 0.45629,0.493 0.29376,1.28919 1.00606,1.61632 0.46397,0.21318 0.9838,-0.08 0.90695,-0.57797 -0.12766,-0.82666 -0.57535,-1.69957 -0.912,-2.46723 0.25097,-0.0508 0.43128,-0.0523 0.68879,-0.0292 0.28285,0.0256 0.72652,-0.0354 0.96258,0.13947 0.90604,0.67132 -0.6031,2.49137 0.87266,3.02878 1.79062,0.65211 3.26867,-0.99307 4.93163,-0.99328 m 5.96452,-2.1458 -0.65414,1.82092 -3.81925,0.21759 -0.1147,-1.71663 4.58809,-0.32188 m -30.39614,0.21458 0.1147,0.42917 v 0.10724 l -0.3441,-0.10724 c -0.12744,0.55608 -1.21791,0.42915 -1.72054,0.42915 l 0.1147,-0.96561 1.83524,0.10725 m 20.30233,1.82393 -0.2294,-0.64375 c 0.12984,-0.30876 0.0328,-0.88309 0.32025,-1.10057 0.91199,-0.68965 2.54237,1.01871 0.9409,1.63606 -0.3261,0.12565 -0.68638,0.10725 -1.03175,0.1082 m 4.8175,-1.89548 0.0382,0.0358 c -0.0566,0.0176 -0.12686,-0.0358 -0.0382,-0.0358 m -17.32006,0.28615 v 1.28747 l -3.44108,-0.53646 -0.1147,-0.8583 3.55578,0.10724 m 28.4462,0 c 0,0.45093 0.20887,1.5041 -0.11792,1.86222 -0.77963,0.85467 -1.40258,-1.62447 -1.48792,-1.9695 l 1.60584,0.10724 m 4.8175,-0.10724 0.1147,1.82391 c -0.58498,-0.19227 -0.65506,-1.0921 -0.80292,-1.60934 l 0.68822,-0.21457 m -4.01459,0.10724 -0.1147,0.10725 0.1147,-0.10725 m -36.24596,0.10725 -0.1147,0.10725 0.1147,-0.10725 m 12.96137,0 -0.1147,0.10725 0.1147,-0.10725 m 5.39102,0 -0.1147,0.10725 0.1147,-0.10725 m 12.04375,0 -0.1147,0.10725 0.1147,-0.10725 m -0.68821,0.14301 c 0.0887,0 0.0184,0.0534 -0.0382,0.0358 l 0.0382,-0.0358 m 8.83208,1.57362 -1.72053,-0.10725 v -1.50205 c 1.23236,1.1e-4 1.69438,0.42915 1.72053,1.60934 m -30.28144,-1.50205 -0.1147,0.10725 0.1147,-0.10725 m 6.30864,0 -0.34411,0.21457 v -0.10724 l 0.34411,-0.10725 m 17.43476,0 -0.2294,0.21458 0.2294,-0.21458 m -24.0875,0.14302 c 0.0887,0 0.0184,0.0534 -0.0382,0.0358 l 0.0382,-0.0358 m -16.40245,0.50071 v 1.39477 c -1.15735,-0.0465 -2.32341,-0.17778 -3.44107,-0.47507 -0.43415,-0.11556 -1.01512,-0.26641 -0.87897,-0.80779 0.12124,-0.48206 0.69189,-0.43356 1.10837,-0.43378 1.07052,-4.4e-4 2.16065,0.13669 3.21167,0.32187 m 3.89988,-0.10725 c -0.66435,0.72292 -2.50602,1.26044 -2.52345,-0.10725 l 2.52345,0.10725 m 6.76745,0 v 0.10725 h -0.68822 l 0.68822,-0.10725 m 34.41072,0 -0.1147,0.10725 0.1147,-0.10725 m -37.9665,0.42917 -0.2294,1.28747 -3.09697,-0.10725 c 1.27572,-0.83782 1.69415,-1.54775 3.32637,-1.18018 m -3.32637,0.10725 -0.1147,0.10724 0.1147,-0.10724 m 0.2294,0.10724 -0.1147,0.10725 0.1147,-0.10725 m 12.50257,0.42916 -0.1147,0.10724 0.1147,-0.10724 m -8.83209,0.21457 -0.1147,0.10725 0.1147,-0.10725 m 12.96138,0 -0.11471,0.10725 0.11471,-0.10725 m 14.68191,0.10725 -0.11471,0.10725 0.11471,-0.10725 m -23.16989,0.32186 -0.11471,0.10725 0.11471,-0.10725 m 32.91959,0.42916 0.1147,0.10724 -0.1147,-0.10724 m -33.83721,0.53647 c 0.77722,0.9258 2.37503,1.07107 3.55577,1.07289 h 8.25858 v -0.10725 l -4.24399,-0.31768 -4.24399,0.0935 -3.32637,-0.74148 m 6.53804,2.14579 v 0.10725 c 1.71927,0.0331 3.35527,0.57454 5.0469,0.73269 2.09447,0.1959 4.12482,-0.0157 6.19393,0.0322 1.18442,0.0274 3.30997,0.83309 4.12929,-0.33571 -3.176,-0.68109 -6.29969,-0.25449 -9.5203,-0.21652 -1.93159,0.0228 -3.89403,-0.31994 -5.84982,-0.31994 m -41.98109,4.50616 c 0.17033,-0.72989 0.86577,-0.48945 1.49113,-0.4238 1.45695,0.15311 2.91161,0.42488 4.35869,0.64696 6.31758,0.96979 12.57666,2.13764 18.9259,2.88824 0.001,-1.56761 1.46579,-1.79485 2.86756,-2.08399 2.91046,-0.60051 5.97864,-0.59826 8.94679,-0.59826 4.91236,0 9.78756,0.48163 14.68191,0.53602 4.18136,0.0466 8.336,-0.4622 12.50256,-0.63912 2.1891,-0.0929 4.36868,-0.34794 6.53804,-0.63397 0.83572,-0.11011 2.08919,-0.19806 2.70354,-0.80681 0.49081,-0.48646 0.65587,-1.67479 0.85224,-2.31853 1.83765,0.004 3.68539,0.40673 5.50571,0.61305 3.71567,0.42133 7.48101,0.80767 11.12614,1.61471 1.24796,0.27626 2.52345,0.49932 3.78518,0.71455 0.40375,0.0688 1.16308,0.16136 1.07132,0.70317 -0.0826,0.48333 -0.76506,0.78782 -1.18602,0.96367 -1.23535,0.51585 -2.58654,0.74566 -3.89989,1.01539 -5.63188,1.15711 -11.39213,1.28747 -17.09066,1.9164 -3.71888,0.41039 -7.50658,0.38346 -11.24083,0.62261 -13.64718,0.87419 -27.27716,0.13754 -40.83406,-1.48091 -3.55463,-0.42444 -7.10387,-0.94351 -10.66733,-1.30035 -1.8326,-0.18358 -3.82429,-0.14668 -5.62042,-0.50255 -1.63715,-0.32434 -3.20685,-1.01894 -4.8175,-1.44648 m 20.30233,-2.25308 -9.2909,0.90499 -4.9322,0.50802 -3.09697,-0.0183 c 0.84031,-0.99157 2.80482,-0.43312 4.01459,-0.56713 3.2993,-0.36532 6.54423,-1.3246 9.8644,-1.47556 1.10964,-0.0504 2.65044,-0.26167 3.44108,0.64793 m 1.83524,0.53644 v 0.10725 l -5.39102,0.87268 -8.25857,0.84394 c 0.50744,-0.88181 2.28453,-0.60533 3.21167,-0.79652 3.48317,-0.71841 6.87365,-1.02741 10.43792,-1.02741 m 2.17934,0.64375 c -2.05891,1.12386 -4.60691,1.03341 -6.88214,1.48102 -1.60538,0.31587 -3.31215,0.89512 -4.93221,0.3429 0.77402,-0.59696 2.01934,-0.62701 2.98227,-0.75103 1.92906,-0.24848 3.95299,-0.41435 5.84982,-0.82087 0.87082,-0.18668 2.16696,-0.77302 2.98226,-0.25202 m 3.44108,0.21457 c -0.46581,0.65673 -1.76883,0.43871 -2.52346,0.64824 -2.55178,0.70865 -5.11045,1.13879 -7.68506,1.71213 0.31509,-0.94254 1.78615,-0.78879 2.63816,-0.90423 1.14759,-0.15557 2.3616,-0.37025 3.44107,-0.76959 0.8309,-0.30738 1.73522,-0.87838 2.63816,-0.93996 0.50308,-0.0342 0.99825,0.1856 1.49113,0.25341 m 4.58809,0.53646 c -0.62685,0.66444 -2.1868,0.53805 -3.09696,0.65768 -2.452,0.32251 -4.83517,1.48778 -7.34096,1.48811 0.26313,-0.78719 1.63382,-1.04029 2.40875,-1.2024 2.32468,-0.48624 5.70427,-1.75783 8.02917,-0.94339 m -0.1147,3.54055 v 0.10725 l 31.08436,0.10561 16.63185,-0.74943 c -1.27079,-0.49878 -3.46207,-0.0965 -4.81751,-0.01 -2.94338,0.1885 -5.99996,0.0837 -8.94679,0.11637 -6.03954,0.0672 -12.08665,0.21502 -18.12298,0.21502 -5.24981,0 -10.60022,-0.17145 -15.82893,0.21457 m -18.12298,2.46766 c 0.0561,0.65973 0.59037,1.73584 0.20876,2.34449 -0.43392,0.69224 -1.47003,0.1544 -1.90968,-0.23131 -1.07786,-0.94533 -1.85084,-2.45264 -1.85486,-3.82981 1.64472,0.08 1.82503,1.91662 3.55578,1.71663 m -4.12929,0.96561 c -1.00766,-0.10521 -1.24785,-0.91518 -1.49113,-1.71663 l 0.1147,-0.10725 c 0.79753,0.24644 1.32137,1.05498 1.37643,1.82392 m 10.09381,1.71663 c -1.24589,-0.12019 -1.85439,-1.31419 -2.7524,-2.00256 -0.25383,-0.19462 -0.87632,-0.66165 -0.56858,-1.02719 0.30855,-0.3665 0.8511,0.14871 1.05504,0.35761 0.72274,0.73996 1.92356,1.73014 2.26594,2.67214 m 57.46592,-3.00411 c -0.43174,1.33523 -1.86988,3.47061 -3.44108,3.75513 0.0387,-1.69956 1.80863,-3.23703 3.44108,-3.75513 m -69.28027,1.0729 h -0.2294 l -0.2294,-0.75103 c 0.43976,0.1516 0.53566,0.32038 0.4588,0.75103 m 19.95822,2.57494 c -1.00662,-0.0489 -2.86928,-2.08763 -2.17567,-3.07716 0.73169,-1.04425 1.75609,1.13093 1.89592,1.57512 0.15289,0.4858 0.21197,1.0009 0.27975,1.50204 m 52.53371,-3.11138 c -0.008,0.66744 -0.20348,1.00519 -0.91762,1.18018 0.008,-0.65222 0.19328,-1.04297 0.91762,-1.18018 m -58.72764,1.71662 c -0.90626,-0.25931 -1.33249,-0.71229 -1.37642,-1.60933 0.88389,0.16682 1.25255,0.82547 1.37642,1.60933 m 0.68822,-1.60933 0.34411,0.64373 -0.80292,-0.10725 0.2294,-0.53644 h 0.22941 m 60.21877,0 c 0.29972,1.28994 -0.87357,2.34148 -1.83696,3.10977 -0.37634,0.30009 -1.14668,0.79395 -1.64908,0.41158 -0.44757,-0.34055 0.26325,-0.92441 0.49403,-1.16098 0.86783,-0.88976 1.62831,-2.13014 2.99201,-2.36037 m -52.3043,0.10725 c 0.77011,0.6581 0.80578,1.55494 0.57351,2.46765 -0.75004,-0.35383 -1.17284,-1.86877 -0.57351,-2.46765 m 34.75483,0 c 0.20222,0.53451 0.0241,3.24035 -1.0977,2.82578 -0.33207,-0.12265 -0.28963,-0.63021 -0.26795,-0.89457 0.0669,-0.81347 0.60299,-1.55807 1.36565,-1.93121 m -35.55775,2.57494 c -0.47177,-0.21018 -2.18233,-1.82875 -1.42151,-2.35533 0.93506,-0.64706 1.40063,1.90837 1.42151,2.35533 m 33.60781,-2.46766 c 0.33378,0.64868 0.12158,3.35999 -1.22525,2.92772 -0.38001,-0.12197 -0.26141,-0.72336 -0.21553,-0.9965 0.14177,-0.84427 0.52706,-1.63993 1.44078,-1.93122 m -36.47537,3.54055 c -1.27113,-0.52335 -2.52254,-2.1533 -2.52345,-3.43326 0.93046,0.29601 2.71764,2.49298 2.52345,3.43326 m 5.62042,-3.43326 c 0.58509,0.8257 0.41465,1.65515 0.2294,2.57495 -0.94927,-0.43807 -0.92496,-1.92306 -0.2294,-2.57495 m 34.86953,0 c -0.003,1.07664 -0.74728,2.97127 -2.06464,3.1114 0.004,-1.31215 0.75336,-2.54953 2.06464,-3.1114 m -8.02917,3.54055 c -0.18008,-0.92129 0.31062,-1.79506 0.84329,-2.56529 0.1872,-0.27059 0.65232,-0.75832 1.0477,-0.53688 0.39308,0.22005 0.238,0.84577 0.13913,1.17096 -0.26588,0.87474 -1.01878,1.82586 -2.03012,1.93121 m 9.97911,-3.21868 c 0.62341,1.40957 -1.07006,3.88099 -2.63815,4.077 -0.15474,-1.83432 0.5984,-3.43359 2.63815,-4.077 m -34.75483,0.10724 -0.2294,2.25308 h -0.34411 c -0.33792,-0.74597 -0.44172,-1.97776 0.57351,-2.25308 m 37.16358,0.10725 c -0.64222,1.46472 -1.18384,3.11408 -2.19758,4.39845 -0.42726,0.54137 -1.05171,1.15539 -1.817,1.07332 0.60769,-1.74699 1.99972,-4.83102 4.01458,-5.47177 m -35.78715,0.42917 c 0.18673,0.9009 0.70703,2.65766 -0.57351,3.00409 -4.8e-4,-0.82494 -0.55161,-2.67171 0.57351,-3.00409 m -28.4462,1.18018 c -0.72446,-0.0699 -1.20438,-0.39784 -1.37643,-1.07289 0.72171,0.0696 1.22824,0.38795 1.37643,1.07289 m 48.86323,3.21869 c 0.003,-0.99082 0.41064,-2.7125 1.01512,-3.54013 0.23227,-0.31801 0.87506,-0.9847 1.32401,-0.57775 0.37106,0.33635 -0.012,0.98534 -0.18031,1.32834 -0.46226,0.94254 -0.95215,2.56165 -2.15882,2.78954 m -30.16673,-0.64375 c -1.16401,-0.0567 -2.23969,-1.02868 -2.81308,-1.93132 -0.23101,-0.3637 -0.55906,-0.98137 -0.11895,-1.32823 0.43266,-0.34108 1.01156,0.1127 1.31656,0.39804 0.77848,0.72827 1.51774,1.8207 1.61547,2.86151 m 20.07292,-3.43326 c 0.43667,1.45335 0.5087,3.66706 -0.22941,5.04261 h -0.2294 c -0.30236,-1.14799 -0.89847,-4.35928 0.45881,-5.04261 m -8.83209,0.10725 0.25349,3.54055 0.54943,2.46767 c -0.38919,-0.33615 -0.42819,-0.76358 -0.68718,-1.18018 -0.81083,-1.30476 -1.80404,-3.62586 -0.11574,-4.82804 m 2.40875,5.68634 c -2.07772,-0.66262 -1.33594,-4.15649 -1.03232,-5.68634 2.02989,0.46124 1.77227,4.36593 1.03232,5.68634 m 2.06465,-5.57905 c 0.56112,1.65569 0.2294,3.34861 0.2294,5.04261 -1.47622,-0.56424 -0.85086,-3.88581 -0.45881,-5.04261 h 0.22941 m 2.17934,5.04261 c -1.51556,-0.49353 -0.96556,-3.88592 -0.57351,-5.04261 1.34328,0.43775 1.0462,3.99471 0.57351,5.04261 m 4.35869,-5.04261 c 0.28733,1.38608 0.61114,3.42553 -0.1147,4.72075 -0.96545,-0.68591 -1.29728,-4.45114 0.1147,-4.72075 m 3.89989,0 -0.43759,3.1114 -0.25063,2.36036 c -0.91441,-1.14938 -1.01053,-4.92672 0.68822,-5.47176 m 2.40875,0 c -0.30718,1.5248 -0.63798,4.31239 -1.94994,5.36447 -0.42142,-1.33661 0.41006,-4.86417 1.94994,-5.36447 m 23.28459,0.10724 c -0.36636,1.4422 -2.00477,3.15636 -3.44107,3.75515 0.004,-1.2937 1.76527,-4.20103 3.44107,-3.75515 m -58.95705,2.03851 c -0.95008,-0.30212 -1.67775,-1.20003 -2.06464,-2.03851 0.93758,0.13246 1.79658,1.21184 2.06464,2.03851 m 31.08436,-1.9312 v 4.93531 c -0.37347,-0.0557 -0.60529,-0.15535 -0.67124,-0.53849 -0.19316,-1.12322 -0.14062,-3.36439 0.32713,-4.39682 h 0.34411 m 35.21353,0.47314 c 0.65483,-0.10725 1.0782,0.47807 0.78204,1.02697 -0.27265,0.50533 -1.01064,0.82946 -1.58485,0.91561 -0.5438,0.0816 -1.23087,-0.21222 -0.89387,-0.80606 0.3019,-0.53216 1.06123,-1.03245 1.69668,-1.13652 m -78.34164,1.56535 c -1.1531,0 -2.26618,-0.10153 -2.40875,-1.39476 1.09988,6.6e-4 2.33568,0.14742 2.40875,1.39476 m 49.20734,-1.28748 c -0.0309,1.39756 -0.51203,2.82966 -0.84478,4.1843 -0.0852,0.34687 -0.41523,1.1378 -0.9408,0.99221 -0.48863,-0.13532 -0.20669,-1.01958 -0.11401,-1.31408 0.38506,-1.22364 0.94997,-2.79028 1.67018,-3.86243 h 0.22941 m -36.01656,3.0041 c -1.0696,-0.24708 -1.77273,-0.79586 -2.75286,-1.21559 -0.84926,-0.3637 -1.82216,-0.33162 -1.83524,-1.35935 l 3.32637,1.70966 1.26173,0.86528 m 51.84549,-2.57494 c -0.27196,1.72254 -1.83592,4.89723 -3.89988,5.1499 0.6163,-1.69293 2.1236,-4.34266 3.89988,-5.1499 m -50.69847,0.21457 c 1.44652,0.63291 4.35204,1.33855 4.35869,3.1114 -1.27147,-0.28249 -2.58195,-1.0391 -3.55566,-1.84366 -0.38517,-0.31833 -0.9479,-0.74953 -0.80303,-1.26774 m 58.49824,1.28749 c -0.6709,2.174 -2.37721,3.89654 -4.81751,4.07699 0.13811,-0.63816 0.63649,-0.84597 1.07649,-1.29863 1.08176,-1.11313 2.07772,-2.4521 3.74102,-2.77836 m -67.33032,0.10725 c 0.94193,0.59931 2.56979,1.29905 2.63815,2.46765 -1.15138,-1.1e-4 -2.86354,-1.2009 -2.63815,-2.46765 m 17.20536,0 c -0.0412,0.70156 -0.61343,0.97922 -0.8254,1.60944 -0.277,0.82356 0.25418,2.01243 -0.2567,2.75369 -0.41844,0.60727 -1.32287,-0.34633 -1.48574,-0.71573 -0.72928,-1.65451 0.73065,-3.63303 2.56784,-3.6474 m 53.22192,1.07289 c 0.17573,-0.38377 1.38733,-1.51279 1.76103,-0.70479 0.38838,0.83976 -1.32091,0.82538 -1.76103,0.70479 m -10.32322,-0.32188 c -2.4e-4,2.85391 -2.13518,4.22346 -4.7028,5.1499 l -0.1147,-0.10724 c 0.44941,-0.88342 1.28983,-1.50141 1.93893,-2.25308 0.87392,-1.01174 1.4035,-2.43322 2.87857,-2.78954 m -39.80174,0.2531 c 1.13223,-0.16393 1.62843,1.44938 0.45709,1.65366 -1.51487,0.26404 -2.11454,-1.41365 -0.45709,-1.65366 m 32.46079,3.71662 -0.80292,-3.75514 c 1.98195,0.0961 3.073,3.59495 0.80292,3.75514 m -29.82263,-3.64784 c 1.99536,1.07557 2.46553,4.28976 -0.45881,4.29157 l 0.63511,-2.25308 -0.1763,-2.03849 m -9.635,2.03849 c -0.74958,-0.0553 -4.11518,0.0487 -3.68344,-1.37888 0.13615,-0.45018 0.81003,-0.32669 1.15998,-0.23829 0.94997,0.24 1.99606,0.83342 2.52346,1.61717 m 36.58995,-1.51717 c 1.19887,0.12782 1.02544,1.61631 -0.22757,1.49669 -1.09609,-0.10466 -0.89054,-1.61589 0.22757,-1.49669 m -40.71924,1.62447 c -1.59815,-0.004 -3.46516,-0.48291 -4.8175,-1.28748 0.53772,-0.51112 1.00869,-0.10834 1.60583,0.11474 1.04276,0.38967 2.43605,0.32851 3.21167,1.17267 m 60.56288,-1.18019 c 0.1966,-0.0886 0.35787,-0.16244 0.57638,-0.1928 2.03746,-0.28334 0.33241,1.91609 -0.57638,0.1928 m -71.80372,1.39477 c -1.18281,0.20471 -2.06682,-0.19881 -2.17934,-1.39477 0.87713,0.14623 1.79406,0.6241 2.17934,1.39477 m 47.83091,-1.28748 0.22883,2.14579 0.80349,1.28748 c -0.65001,0 -1.49893,0.11093 -2.00064,-0.36683 -0.9557,-0.91002 -0.26037,-2.76667 0.96832,-3.06644 m -43.93103,2.36038 c -1.26631,-0.004 -1.70941,-0.95178 -2.75285,-1.50207 v -0.32186 c 0.97738,0.0109 2.54891,0.8817 2.75285,1.82393 m 11.81436,0 c -1.02453,0.46101 -2.23544,-0.0701 -3.09697,-0.64375 0.88217,-0.93502 2.45337,-0.19075 3.09697,0.64375 m 53.68073,-0.42917 c 0.3004,-0.12087 0.60184,-0.209 0.91762,-0.29021 2.11798,-0.54526 1.30565,1.5587 -0.22884,0.87268 -0.30602,-0.13679 -0.49173,-0.33496 -0.68878,-0.58247 M 156.3558,193.4877 c -0.20004,0.64514 -0.7458,0.71037 -1.37643,0.53646 0.32747,-0.54601 0.75612,-0.53603 1.37643,-0.53646 m 38.76941,18.99025 c -0.23823,0.1472 -0.4603,0.30609 -0.68878,0.4666 -0.42819,0.30083 -1.34971,0.61176 -0.95238,-0.25214 0.35833,-0.77913 0.93666,-1.47072 1.29706,-2.25297 l -2.75286,2.36037 -0.45881,-0.42915 v -0.10725 c 0.69991,-0.76809 1.91209,-1.99291 2.06464,-3.00411 l -3.55577,3.96972 c -1.21241,-0.57765 1.36977,-3.18769 1.83524,-3.96972 l -5.27631,6.00821 c -1.61547,-0.94479 1.56098,-3.15742 2.25803,-3.96971 0.91624,-1.06785 1.42609,-2.45746 2.1361,-3.64784 0.49139,-0.82377 1.19554,-1.51729 1.65378,-2.36038 0.44688,-0.82215 0.65162,-1.83721 1.24865,-2.57333 0.92726,-1.14327 3.12002,-1.4056 2.62141,-3.32759 -0.22413,-0.86389 -1.09965,-1.34057 -1.8888,-1.70729 -1.87906,-0.87313 -4.34803,-1.25475 -6.30864,-0.3856 -1.83432,0.81326 -2.10892,2.19826 -2.97079,3.70224 -0.98071,1.71116 -2.24312,3.29078 -3.34358,4.93531 -0.60792,0.90843 -1.36828,1.91126 -1.48539,3.00411 h 0.1147 c 1.39145,-2.61626 3.58009,-5.12683 5.39101,-7.51026 l 0.68822,0.42915 -2.36964,3.43326 -5.54483,7.51027 -0.45881,-0.21458 1.26173,-2.57494 h -1.26173 c 1.203,-2.61142 3.34656,-5.02769 5.00745,-7.40298 0.23239,-0.33249 1.71721,-2.01253 1.41784,-2.35586 -0.32954,-0.37809 -1.3887,1.3805 -1.54872,1.60483 -1.47495,2.06952 -2.86951,4.2006 -4.41776,6.2228 l -1.03232,-0.53645 c 0.86635,-1.95214 2.73049,-3.7209 3.99577,-5.47176 0.47143,-0.65255 1.37093,-1.42212 1.16584,-2.25308 h -0.22941 l -2.67497,3.01365 -1.11468,1.01818 -1.02785,-0.38399 3.78518,-5.47177 -1.60583,0.85832 -0.22941,-0.75103 c 0.60598,-2.08077 4.09557,-3.19766 6.07923,-3.66147 4.0935,-0.95691 8.91135,-0.76959 12.73197,1.00584 1.9496,0.90585 3.74526,2.27668 4.47282,4.26498 1.33663,3.65277 0.51421,7.6302 0.24019,11.37269 -0.0645,0.88126 0.55573,3.22961 -0.25659,3.79772 -0.5617,0.39278 -1.63084,0.22273 -2.27707,0.18153 -1.59735,-0.10166 -6.99456,0.20804 -5.73513,-2.58449 m 26.84037,-17.91735 v 0.21458 l -2.29405,0.42916 c 0.4236,-0.69814 1.52382,-0.85629 2.29405,-0.64374 m -4.8175,0.10725 0.1147,0.10724 c -0.14303,0.49998 -0.36533,0.69289 -0.91762,0.75104 0.0868,-0.50588 0.27024,-0.72431 0.80292,-0.85832 m -37.62239,2.14579 -5.27632,-0.21458 h -2.63815 c 1.21722,-1.13727 4.50241,-1.05422 6.07923,-0.77195 0.74166,0.13273 1.55502,0.25567 1.83524,0.98653 m 31.77257,0 c -0.74569,0.79866 -2.49157,0.71701 -3.55578,0.87774 -0.41465,0.0627 -1.01741,0.0447 -1.09804,-0.45438 -0.0928,-0.574 0.6062,-0.90392 1.09804,-1.01035 1.16538,-0.25202 2.58344,-0.0549 3.55578,0.58699 m 3.10029,-0.3179 c 0.50664,-0.0547 0.58131,0.66037 0.10507,0.76508 -0.51467,0.11324 -0.61481,-0.70993 -0.10507,-0.76508 m -56.09281,0.21061 c -0.28286,0.77827 -0.96603,1.2452 -1.83524,1.28747 0.11378,-1.03234 0.8332,-1.28489 1.83524,-1.28747 m 8.60268,0.32186 -1.37643,0.71981 -3.67048,1.96244 c 0.79524,-1.72404 2.97963,-3.58465 5.04691,-2.68225 m -5.73512,0.85832 c -0.69246,1.87199 -2.14195,2.36605 -3.89988,3.24229 -0.58625,0.29215 -1.09449,0.74331 -1.72054,0.94201 0.38735,-2.41735 3.34151,-3.678 5.62042,-4.1843 m 59.41585,3.00411 c -1.0142,-0.48956 -2.19999,-1.60323 -2.40875,-2.68224 1.47347,0.0714 2.29784,1.41419 2.40875,2.68224 m -33.14395,-2.51969 c 0.93735,-0.27649 2.15228,0.36842 3.09192,0.46252 1.24704,0.12496 2.72602,-0.42637 3.89942,-0.15096 0.80429,0.18872 0.92978,0.87731 0.22482,1.28136 -1.32894,0.76154 -4.07217,1.07321 -5.50067,0.51091 -0.51605,-0.20309 -3.43591,-1.59657 -1.71549,-2.10383 m -19.04565,0.48119 c -0.50515,0.77431 -1.51671,0.78653 -2.29405,1.21805 -0.82505,0.45782 -1.27365,1.25851 -2.29405,1.35689 0.42349,-1.71126 2.68588,-3.32575 4.5881,-2.57494 m 11.01143,3.54055 c 1.1562,-0.55244 1.80026,-1.66309 2.7532,-2.44524 0.259,-0.21264 1.0204,-0.60982 0.68249,-1.03018 -0.35054,-0.43593 -1.022,0.25674 -1.25634,0.47186 -0.97807,0.89769 -1.79223,1.7546 -2.17935,3.00356 m 44.38984,2.36037 -2.29405,-3.54055 0.91762,-0.42917 3.42513,4.93533 1.62178,2.46765 c -1.61662,0.50619 -2.23223,-1.87296 -3.65867,-1.83175 -0.68156,0.0196 0.14384,0.9995 0.27552,1.18802 0.76977,1.10272 1.9075,2.28794 2.35083,3.54055 -1.23202,0.38259 -2.73807,-1.58918 -3.67048,-2.25307 l 3.67048,5.90091 v 0.10725 c -0.73204,0.57303 -1.27848,0.19441 -2.06465,-0.10725 l 0.22941,1.60934 -1.37643,-0.96561 1.03232,3.00411 -1.72054,-0.53644 0.68822,1.39476 h -2.29405 c 0.45491,0.49879 2.96081,2.74908 1.37643,3.0041 -0.0143,1.48639 -1.18224,1.01131 -0.91762,-0.32187 -1.50341,-0.32241 -2.98399,-0.76539 -4.4734,-1.14156 -0.62214,-0.15718 -1.31265,-0.56326 -1.60583,0.17596 1.32286,0.25867 2.94992,0.73643 3.86215,1.72093 1.00743,1.08705 1.37287,3.38434 -0.19167,4.18 0.0921,-0.26083 0.48289,-0.72421 0.34032,-0.99126 -0.19167,-0.35889 -0.90844,-0.63676 -1.25794,-0.8479 -1.11078,-0.6712 -2.22603,-1.33716 -3.32637,-2.02327 -0.34721,-0.21651 -1.02189,-0.8288 -1.46739,-0.76497 -0.44482,0.0638 0.008,0.54771 0.14235,0.67012 0.34215,0.31169 1.81424,1.17794 1.03656,1.70119 -0.3043,0.20482 -0.95203,0.14667 -1.31735,0.1869 -1.38401,0.15277 -2.85071,0.0307 -4.24399,0.0307 0.29914,0.75038 0.87059,1.77682 0.68821,2.57494 -1.68647,-0.37487 -2.86527,-2.05202 -3.94852,-3.21868 -0.29467,-0.31726 -1.17593,-0.90145 -0.89743,-1.38693 0.46719,-0.81455 1.74692,0.23131 2.4372,-0.22241 l -4.93221,-2.36037 v -0.10725 l 3.32637,0.10725 -0.91762,-1.60935 0.80292,-0.32186 c 1.1429,1.57146 2.37962,3.09304 3.59856,4.61344 0.52717,0.65747 0.86027,1.58402 1.79245,1.0729 v -0.10725 c -0.36647,-0.27338 -1.98423,-1.50656 -1.61845,-1.9738 0.2613,-0.33346 1.22996,-0.17199 1.61845,-0.17199 l -0.1147,-0.42915 c 1.20472,-0.60008 2.53114,-1.02644 3.78518,-1.53221 0.32152,-0.12959 1.11583,-0.29311 1.23799,-0.64309 0.10644,-0.30492 -0.32656,-0.62249 -0.51272,-0.81926 -0.6124,-0.64718 -1.31357,-1.24489 -1.86334,-1.94066 -0.62261,-0.78804 0.33424,-0.55554 0.79397,-0.28775 l 0.68821,0.4003 c 0.37783,0.22123 0.76346,0.42669 1.14702,0.63837 -0.25647,-0.35094 -1.42368,-1.32502 -1.13142,-1.78669 0.24868,-0.39278 0.87897,0.0927 1.13142,0.23914 1.06926,0.62057 2.11145,1.29864 3.21167,1.86942 -0.81886,-0.94135 -1.6945,-1.83798 -2.50039,-2.78952 -0.17183,-0.20289 -0.79902,-0.86616 -0.23331,-1.02376 0.65736,-0.18315 1.98114,1.11935 2.619,1.34562 l 0.23893,-0.82613 -1.15655,-0.87923 -3.09696,-2.15705 -0.22941,0.42915 h -0.1147 c -2.41185,-2.3035 -4.59395,-4.85818 -6.8498,-7.29568 -0.66195,-0.7153 -1.66571,-2.4241 -2.7852,-2.0385 l 0.57351,1.60934 h 0.1147 l 0.34411,-0.53645 h 0.1147 c 1.61455,1.57801 3.09742,3.34368 4.5655,5.0426 0.4127,0.47755 1.49847,1.29166 1.533,1.93067 0.0289,0.53516 -0.56675,0.59139 -0.93689,0.36779 -0.84318,-0.50929 -1.68406,-1.22094 -2.40875,-1.86929 l 1.03232,2.46766 c -0.30878,0.16629 -0.56296,0.30458 -0.88321,0.0673 -1.06455,-0.78869 -2.64538,-2.86163 -3.13137,-4.03699 h -0.11471 l 1.03232,3.86243 c -1.25553,-0.0285 -1.77605,-1.0051 -2.04973,-2.0385 -0.56089,-2.11833 -0.58464,-4.47934 -0.58842,-6.65195 -0.001,-0.70522 -0.27575,-2.06908 0.19981,-2.65777 0.79569,-0.98471 3.42203,0.3578 4.50299,0.3076 2.5301,-0.11747 4.69557,-1.45636 7.34095,-0.86422 2.97343,0.66562 5.0788,3.92668 7.45566,5.57476 m -50.01026,-4.93531 c -0.4205,0.93974 -1.05182,1.74313 -2.17934,1.9312 0.0997,-1.06066 0.8902,-2.23494 2.17934,-1.9312 m -2.75285,0.21457 c -0.1724,0.89071 -0.96087,1.53585 -1.50111,2.25308 -0.7778,1.03245 -0.94022,2.59866 -2.39878,3.0041 -0.56617,-2.25029 1.89913,-4.47783 3.89989,-5.25718 m 4.47339,0.21458 c -0.29387,0.94801 -0.83664,2.00546 -1.94994,2.25308 0.2372,-1.07493 0.5898,-2.1843 1.94994,-2.25308 m -15.71423,1.28747 c -0.18823,1.14017 -1.70907,1.38265 -2.49902,2.08872 -0.4392,0.39245 -0.59783,0.87376 -1.17146,1.12997 0.0338,-1.47642 2.11557,-3.18349 3.67048,-3.21869 m 6.65274,0.10725 c -0.17033,0.67785 -0.70164,1.16506 -1.1289,1.71664 -0.64509,0.83278 -1.0368,2.16274 -2.19747,2.46765 0.15324,-1.75515 1.47645,-3.68947 3.32637,-4.18429 m 22.25227,0.32188 c -0.22183,1.58476 -2.11316,3.063 -3.19206,4.18428 -1.72558,1.79334 -2.98788,4.05533 -4.30948,6.11551 -0.67525,1.05271 -1.35636,2.42398 -2.47757,3.11138 -0.76174,-1.48091 1.03553,-2.56002 1.82457,-3.64784 1.75644,-2.42153 3.34117,-4.89433 4.92739,-7.40297 0.81622,-1.29092 1.55605,-2.39158 3.22715,-2.36036 m -53.79543,1.39476 c -0.99642,-0.58635 -2.45108,-0.0808 -3.55578,0.0683 -0.42483,0.0572 -1.02923,0.081 -1.33696,0.40019 -0.62192,0.64523 -0.0231,1.85406 0.87824,1.87059 0.89841,0.0165 1.84903,-0.34064 2.75277,-0.40792 0.13913,0.88439 0.52488,1.75827 1.11961,2.46305 0.21793,0.25825 0.6093,0.67131 0.94503,0.43377 h 0.1147 c 0.24226,0.71744 1.28261,0.69663 1.94994,0.54729 1.23615,-0.2767 1.98894,-0.93234 1.83524,-2.15663 h 0.11471 v 0.21458 c 0.41143,-0.94361 -0.33367,-2.52485 -0.67228,-3.43326 -0.12926,-0.34676 -0.26312,-0.84663 -0.67766,-0.98364 -0.62146,-0.20546 -3.47904,0.36671 -3.46756,0.98364 m 115.73474,1.07289 h 0.1147 c 0.17205,0.50694 0.63774,0.81636 0.61939,1.39476 -0.0287,0.88289 -0.93023,1.55463 -0.93023,2.35608 0,1.17203 1.21355,0.36865 1.54045,-0.11256 0.62283,-0.91647 0.86027,-2.35619 0.69624,-3.42371 -0.2512,-1.62919 -3.0442,-2.59909 -3.76109,-0.75103 l -0.22941,-0.10725 c -0.40719,0.61734 -1.49457,2.46444 -2.49133,1.7442 -0.36476,-0.26318 -0.34984,-0.76454 -0.60563,-1.10046 l 0.45881,-0.75103 c 0.91762,-0.61327 -0.23285,-1.78948 -1.06559,-1.25335 -2.42481,1.56127 -0.32919,5.84813 2.55672,4.94003 0.91303,-0.28743 1.43378,-1.05487 1.94421,-1.75536 0.32575,-0.44676 0.96809,-0.68269 1.15276,-1.18029 m -88.89438,-2.0385 c -0.28687,1.48221 -2.58849,2.69929 -3.78518,3.54055 -0.26152,-1.00412 0.81232,-1.48628 1.4862,-2.06092 0.82024,-0.69964 1.05606,-1.46913 2.29898,-1.47963 m 53.45133,0 c 0.26485,0.50361 0.67583,0.69449 1.26172,0.75103 -0.0595,-0.7166 -0.5937,-0.74577 -1.26172,-0.75103 m 30.74025,0.10725 v 0.32186 h -0.11471 l 0.11471,-0.32186 m -0.91762,0.32186 -0.1147,0.53645 h -0.11471 l 0.22941,-0.53645 m -64.11866,12.33829 0.45881,0.32187 h 0.11471 l 7.91446,-10.83623 0.91762,0.42915 -7.34095,9.87064 c 1.16102,0.45308 1.88146,-1.07022 2.55178,-1.82393 1.28811,-1.44851 2.56119,-2.91741 3.8056,-4.39929 0.61113,-0.72775 1.28203,-1.76995 2.1306,-2.25266 -1.35108,2.3739 -3.30057,4.76817 -5.21151,6.76879 -0.6889,0.72131 -1.33525,1.69443 -2.1782,2.26037 -0.80635,0.54128 -2.32329,0.57723 -3.27762,0.50995 -0.41579,-0.0294 -1.04861,-0.1472 -1.079,-0.63611 -0.0484,-0.77774 1.31357,-2.16339 1.78373,-2.78749 1.78489,-2.36917 3.50829,-4.77589 5.3878,-7.0811 0.56251,-0.68998 1.10149,-1.40143 1.74004,-2.03368 0.21392,-0.21189 0.61584,-0.59063 0.95054,-0.34268 0.32449,0.24032 -0.054,0.65767 -0.21438,0.87429 -0.53302,0.72045 -1.07384,1.43415 -1.62017,2.14579 -2.25597,2.93866 -4.95216,5.85394 -6.83386,9.01232 m -44.73394,-12.1237 -0.1147,0.10725 0.1147,-0.10725 m -2.52345,0.21458 v 0.42915 h -0.11471 l 0.11471,-0.42915 m 2.40875,0 0.1147,0.53644 h -0.1147 v -0.53644 m 75.47419,3.11138 c -0.52247,-0.89725 -1.41302,-1.62349 -2.03987,-2.46711 -0.14911,-0.20085 -0.4931,-0.82817 -0.84868,-0.53194 -0.30786,0.25642 0.0613,0.7376 0.26691,0.92794 0.75761,0.70103 1.75047,1.49711 2.62164,2.07111 m 39.99329,-3.03983 -0.039,0.0714 0.039,-0.0714 m -75.55104,0.14302 c -0.65403,1.45989 -2.28373,3.47854 -4.01458,3.86242 0.32334,-1.26172 1.48998,-1.88465 2.34933,-2.80777 0.52717,-0.56616 0.72871,-1.30399 1.66525,-1.05465 m -42.9369,0.0716 -0.0383,0.0714 0.0383,-0.0714 m 38.3488,-0.0716 c -0.29799,0.84802 -0.77791,1.53145 -1.72053,1.82392 0.16058,-0.84222 0.76896,-1.69388 1.72053,-1.82392 m 1.60584,0.21458 c -0.27689,1.09295 -0.93643,2.11081 -2.06464,2.57494 0.19533,-1.01216 1.12809,-2.06274 2.06464,-2.57494 m 32.80489,0.10725 1.26173,3.43326 0.3441,-0.10725 -1.60583,-3.32597 m 46.30192,0.28614 -0.039,0.0714 0.039,-0.0714 m -33.11114,0.0357 c 0.24099,1.0774 0.9721,1.86362 1.72053,2.68224 l -1.14702,-0.10724 c 0.0515,1.19938 0.51788,1.46814 1.09919,2.46765 0.39515,0.67968 0.21117,1.15786 1.19486,1.18019 l -1.72054,-2.89683 c 0.43817,0.0845 2.09389,0.57477 2.10686,-0.2209 0.006,-0.37809 -0.40238,-0.69094 -0.47487,-1.06657 -0.0577,-0.29955 0.0743,-0.7389 -0.14407,-0.99328 -0.2169,-0.25278 -0.72366,-0.2192 -1.02911,-0.30588 -0.59381,-0.16845 -0.98816,-0.62314 -1.60583,-0.73934 m 25.80804,0 -0.57351,1.07289 0.57351,-1.07289 m -112.98188,0.10725 v 0.42915 h -0.1147 l 0.1147,-0.42915 m -1.18525,0.17884 -0.0383,0.0714 0.0383,-0.0714 m 5.19983,-0.0715 v 0.32186 h -0.1147 l 0.1147,-0.32186 m 2.17935,0 c 0.87243,1.34282 -0.29926,3.60964 -1.92826,2.12283 -0.4642,-0.42358 -0.58395,-1.01583 -0.7099,-1.58639 l 2.63816,-0.53644 m 114.01421,0 -0.11471,0.10725 0.11471,-0.10725 m -38.76942,0.10725 0.57351,0.9656 c -0.0328,-0.4562 -0.15198,-0.72249 -0.57351,-0.9656 m 35.78715,0 -0.1147,0.64372 h -0.1147 l 0.2294,-0.64372 m -32.34608,0.75101 c 0.1131,0.44494 0.53073,0.75489 0.63293,1.18019 0.10082,0.41972 -0.45503,0.65662 -0.37416,1.07289 0.21117,1.08717 1.81815,2.48751 2.9529,2.57496 l -1.94994,-2.14579 c 1.05078,-0.50062 -0.45285,-2.55125 -1.26173,-2.68225 m -77.19473,0.75103 0.1147,0.53644 h -0.1147 v -0.53644 m 105.64093,0.21458 -0.2294,0.42917 0.2294,-0.42917 m -86.02682,0.21458 c -0.4065,1.29466 -1.44043,0.98042 -2.52345,1.46697 -0.61802,0.27767 -1.0782,0.7683 -1.72053,1.0007 0.0999,-1.23598 3.00245,-2.65381 4.24398,-2.46767 m 88.09146,-0.10725 c 0.14682,0.34504 0.12044,0.45909 -0.2294,0.64374 l 0.2294,-0.64374 m -0.68821,0.10725 -0.22941,0.32187 0.22941,-0.32187 m -84.42098,0.10724 c 0.58693,1.4658 -0.81232,2.2077 -1.1585,3.54057 -0.0625,0.24043 -0.0505,1.55612 -0.61423,1.26858 -0.41981,-0.21404 -0.28182,-1.03009 -0.22424,-1.37587 0.18765,-1.12655 0.71287,-3.04746 1.99697,-3.43328 m 4.01458,0.21459 c 0.12629,0.72828 -0.25716,1.07966 -0.54942,1.71663 -0.51192,1.11571 -0.54381,2.64469 -2.20344,2.68224 0.17928,-1.24541 1.15598,-4.3493 2.75286,-4.39887 m 45.99567,0 c 1.54642,1.85493 3.88107,3.83034 6.07923,4.98553 0.62134,0.32649 1.35934,0.17702 1.94994,0.5563 0.95777,0.61497 1.47393,1.66136 2.40875,2.29031 l 0.10977,-1.57406 -2.05971,-1.0657 -2.5792,-1.54916 -2.4677,-2.57032 0.68821,1.9312 c -0.82356,-0.55564 -1.11238,-1.48939 -1.83983,-2.13452 -0.65541,-0.58129 -1.43676,-0.71927 -2.28946,-0.86958 m -6.30863,0.42916 0.1147,0.10724 -0.1147,-0.10724 m -66.87151,0.10724 0.1147,0.53646 h -0.1147 v -0.53646 m 30.62554,0 c -0.20359,0.67786 -0.86611,1.02022 -1.37195,1.50367 -0.84995,0.8124 -1.32126,1.83754 -2.52793,2.25146 0.16082,-0.4947 0.52706,-0.67581 0.82139,-1.08404 0.80509,-1.11678 1.60377,-2.21371 3.07849,-2.67109 m 81.66813,0.75104 v 0.32186 H 251.1 l 0.1147,-0.32186 m -115.27593,0.10724 -0.11471,0.10725 0.11471,-0.10725 m 37.9665,0.21458 c -0.31532,0.87441 -1.0758,1.28716 -1.94994,1.60935 0.25131,-0.97838 0.85476,-1.60013 1.94994,-1.60935 m 2.40875,0.10725 c -0.13558,1.44369 -1.12948,3.38638 -2.75286,3.64784 0.17033,-1.05927 1.68245,-3.25388 2.75286,-3.64784 m 16.17304,0 -0.1147,0.21457 0.1147,-0.21457 m 16.40245,0.21457 0.1147,0.10725 -0.1147,-0.10725 m 13.64958,0 0.22941,0.21459 -0.22941,-0.21459 m -64.92157,0.10725 c -0.0503,1.03105 -1.06019,3.3721 -2.17934,3.64784 0.3932,-1.29617 0.80039,-2.97686 2.17934,-3.64784 m 34.64013,0 -0.3441,0.53644 h 0.1147 l 0.2294,-0.53644 m 56.43359,5.25718 c -0.43242,-0.156 -1.49342,-0.33732 -1.67465,-0.78054 -0.33149,-0.81057 1.02314,-1.75579 0.58728,-2.64104 -0.21909,-0.44566 -0.89927,-0.55039 -1.25255,-0.18947 -0.54828,0.5592 -0.8098,1.62093 -1.10115,2.32357 l -1.72054,-0.53644 0.91762,-2.68224 h -0.3441 c -0.0298,-0.62583 -0.82357,-0.81121 -1.29614,-0.36865 -0.50584,0.47401 -1.53357,2.82762 -1.39593,3.47844 0.14567,0.69373 1.09541,0.77248 1.65975,1.01699 1.5221,0.65994 3.0419,1.34166 4.58809,1.95299 0.55516,0.2193 1.28238,0.51617 1.7561,0.005 0.78341,-0.8432 1.15849,-2.45136 1.46934,-3.51063 0.10093,-0.34247 0.25005,-1.00905 -0.26038,-1.1289 -1.07247,-0.25234 -1.64827,2.37282 -1.93274,3.06011 m -5.39101,-4.82802 -0.34411,0.75102 h -0.1147 l 0.45881,-0.75102 m -103.57628,1.28747 c -0.77998,-0.0428 -3.30263,0.67206 -3.55578,1.39476 h -0.1147 c -0.35524,-0.34912 -0.9619,0.02 -1.37643,0.15665 -0.89422,0.29494 -2.29806,0.45951 -1.84442,1.66299 0.71517,1.8974 3.31617,-0.91068 4.1286,0.13177 1.29649,1.66341 -2.26365,2.29342 -2.27168,3.73496 -0.003,0.60489 0.48565,1.49261 1.2389,1.08159 1.07304,-0.58548 2.33236,-1.69925 2.76318,-2.79823 0.59336,0.17092 1.20702,0.35632 1.83524,0.3118 3.18001,-0.22521 2.49604,-4.59554 0.75497,-6.05457 -0.45101,-0.37798 -1.26929,-0.0174 -1.55788,0.37831 m 29.93733,-0.32188 c -0.56101,1.54153 -1.84557,4.20832 -3.55578,4.82803 0.13283,-0.64192 0.63029,-1.11238 0.88,-1.71663 0.47659,-1.15336 0.63809,-3.50708 2.67578,-3.1114 m 77.08002,0.10725 -0.1147,0.10725 0.1147,-0.10725 m -77.53883,2.78952 c 0.11126,-1.01581 0.89273,-1.88443 1.94994,-2.16843 0.29478,-0.079 1.39753,-0.14569 0.95639,0.42402 -0.36235,0.46788 -1.27813,0.48945 -1.75759,0.89758 -0.38689,0.32937 -0.64554,0.67968 -1.14874,0.84683 m 74.17461,-1.96693 -0.039,0.0714 0.039,-0.0714 m -105.37367,0.35759 0.1147,0.64373 h -0.1147 v -0.64373 m 1.26173,0.42916 v 0.32187 h -0.11471 l 0.11471,-0.32187 m 1.49113,0 0.34411,0.85832 c 0.49413,0.0669 0.14739,1.09359 -0.13971,1.33371 -1.04483,0.87355 -2.31366,-0.51209 -2.38375,-1.441 l 2.17935,-0.75103 m -3.78518,0.21457 -0.11471,0.10725 0.11471,-0.10725 m 113.55539,0 -0.3441,0.32188 0.3441,-0.32188 m -113.47889,0.28615 -0.0383,0.0714 0.0383,-0.0714 m -0.53531,0.0357 0.1147,0.21458 -0.1147,-0.21458 m 26.03745,0.10725 c -0.004,1.24467 -1.34248,2.00084 -1.96405,3.11096 -0.14499,0.2589 -0.54403,0.86497 -0.94905,0.62948 -0.42738,-0.24839 -0.0223,-1.00284 0.17274,-1.26323 0.61962,-0.82732 1.82836,-1.93916 2.74036,-2.47721 m 46.22507,0.10725 c 1.12328,0.6374 2.35083,1.22192 2.98226,2.36037 -0.98804,-0.1781 -3.34472,-1.11989 -2.98226,-2.36037 m -51.27198,2.68223 1.49113,-2.57494 c 1.44881,0.68397 -0.73157,2.21219 -1.49113,2.57494 m 86.94443,-2.57494 -0.3441,0.42915 0.3441,-0.42915 m -103.23217,0.10724 0.1147,0.10725 -0.1147,-0.10725 m 23.8581,0.21458 c -0.17687,0.95746 -0.83813,1.33179 -1.4464,2.04011 -0.74155,0.86369 -0.86462,1.59185 -2.10938,1.92961 0.0163,-1.70731 1.98149,-3.31343 3.55578,-3.96972 m -29.59322,0.32188 -0.11471,0.10725 0.11471,-0.10725 m 113.67009,0 -0.1147,0.10725 0.1147,-0.10725 m -106.55854,0.10725 0.1147,0.42915 h -0.1147 v -0.42915 m 102.54396,0 -0.34411,0.42915 v -0.10631 l 0.34411,-0.32186 m -109.54081,0.10724 -0.1147,0.10725 0.1147,-0.10725 m 32.46078,3.86242 c 7.2e-4,-1.20421 0.39056,-2.27239 1.37815,-3.09713 0.3542,-0.2958 1.19945,-0.76819 1.64506,-0.35093 0.3401,0.31854 -0.1007,0.8935 -0.3269,1.14949 -0.70496,0.79769 -1.62556,1.95804 -2.69631,2.29857 m 7.34096,-3.54055 c -0.53084,1.46107 -2.41265,3.39925 -4.12929,3.54055 0.0656,-1.1201 1.06123,-1.13899 1.8232,-1.75847 0.87059,-0.7078 0.81783,-2.10857 2.30609,-1.78208 m 70.54199,-0.10725 -0.11471,0.10725 0.11471,-0.10725 m -25.69334,0.10725 c 0.39503,0.79158 0.80199,2.1445 1.83523,2.25308 -0.27035,-0.91519 -0.95937,-1.77178 -1.83523,-2.25308 m 27.98739,0.42915 -0.11471,0.10725 0.11471,-0.10725 m -105.98504,0.42917 v 0.32186 h -0.1147 l 0.1147,-0.32186 m 63.55191,0.26114 c 1.26367,-0.34848 2.58229,0.99628 3.29551,1.77736 0.25005,0.2738 0.91315,1.09005 0.2364,1.29648 -1.04471,0.31865 -3.08928,-1.56096 -3.71831,-2.21006 -0.30074,-0.31039 -0.28778,-0.733 0.1864,-0.86378 m -29.02648,0.0608 c -0.34503,1.12042 -0.86543,1.92767 -2.17935,1.93121 0.19064,-0.88375 1.29281,-1.66642 2.17935,-1.93121 m 37.50769,3.21868 c -1.16767,-0.0256 -2.12142,-0.98502 -2.98054,-1.65955 -0.28458,-0.22338 -0.82942,-0.68591 -0.56698,-1.08298 0.33424,-0.50577 0.97474,0.13505 1.25347,0.34773 0.9354,0.71358 1.76378,1.34637 2.29405,2.3948 m 8.83208,-3.00411 0.11471,0.10725 -0.11471,-0.10725 m 17.09067,0.64375 c -0.31658,-0.2148 -0.67445,0.23024 -0.8901,0.46016 -0.53107,0.5637 -1.27434,1.55183 -1.33743,2.32775 -0.0447,0.54042 0.54484,0.74577 0.9658,0.96453 0.99906,0.52036 2.75515,2.00889 3.89988,1.82661 l -0.1147,0.32186 c 0.7318,0.30965 1.58519,1.05198 2.40875,1.07246 0.62972,0.0157 1.23076,-0.74555 0.8465,-1.27309 -0.37507,-0.51467 -2.48216,-0.96077 -2.1564,-1.73219 0.68592,-1.62468 2.71041,0.0916 3.81844,-0.70264 0.4244,-0.30416 0.85912,-1.1422 0.1365,-1.36772 -1.03806,-0.3238 -2.53149,-0.40018 -3.56266,-0.0739 -0.26726,-1.69786 -2.38237,-3.0422 -4.01458,-1.82393 m -44.61924,0 c -1.23363,1.55291 -5.72457,1.97059 -6.99685,0.32187 1.42059,-0.86808 3.29081,-0.25148 4.9322,-0.32616 0.7669,-0.0349 1.32229,-0.32981 2.06465,0.004 m 45.99566,-0.21459 -0.2294,0.21459 0.2294,-0.21459 m -1.37642,0.21459 -0.34411,0.32186 0.34411,-0.32186 m -55.74538,1.60933 6.19393,1.50205 c -0.92565,-0.5917 -2.12991,-0.8465 -3.21167,-1.0745 -0.31509,-0.0664 -0.98196,-0.17907 -1.04138,-0.55564 -0.11619,-0.73806 1.44169,-0.55383 1.8443,-0.48228 0.89766,0.15943 1.71239,0.50835 2.63816,0.59213 1.94913,0.1765 3.60004,-0.48151 5.39101,-1.06914 0.63683,-0.209 2.14138,-0.62582 2.34819,0.34108 0.2793,1.30539 -2.14368,2.46294 -3.15111,2.84349 -2.50854,0.94768 -5.72422,0.69266 -8.25857,-0.0968 -1.11525,-0.3474 -2.35083,-0.88599 -2.75286,-2.00041 m 14.79661,-0.85832 0.57351,0.85832 c -0.5243,-0.0775 -0.84604,-0.36994 -0.57351,-0.85832 m 8.83209,2.0385 c -0.9526,-0.23111 -1.62752,-0.74277 -2.52346,-1.05894 -0.57672,-0.20365 -1.17157,-0.13191 -1.37642,-0.76499 1.35566,-0.40114 3.53799,0.4297 3.89988,1.82393 m -67.10092,2.0385 c 0.26875,0.64631 0.75635,1.62158 1.31438,2.09054 0.55653,0.46778 1.21974,0.13055 1.32378,-0.4812 l 0.2294,0.10725 -1.26172,-2.78952 1.72053,-0.85832 c 0.13122,0.4239 1.52394,2.56294 1.60584,1.93121 h 0.1147 v 0.32187 c 1.8045,-0.26361 -0.24684,-2.60607 -0.71116,-3.32587 -0.23296,-0.36125 -0.48163,-0.88063 -1.0111,-0.86239 -0.61664,0.0213 -1.31621,0.6284 -1.83352,0.91539 -1.35257,0.7507 -2.73863,1.45614 -4.12928,2.14246 -0.56399,0.27832 -1.5236,0.56832 -1.65998,1.23813 -0.20279,0.99575 1.5135,3.0718 2.11351,3.85727 0.25636,0.33549 0.69108,0.64749 1.14553,0.42926 1.46682,-0.70436 -1.03874,-2.52356 -0.99091,-3.41438 0.0268,-0.49846 1.5892,-1.10894 2.03,-1.30174 m 26.15215,-3.86243 c -0.38402,1.31345 -1.24773,3.46535 -2.63815,4.07701 -0.14005,-1.20411 1.30818,-3.83624 2.63815,-4.07701 m -3.09696,0.10725 c -0.0138,0.60277 -0.22447,1.06754 -0.49265,1.60935 -0.17481,0.35309 -0.32655,0.70586 -0.46431,1.0729 -0.10851,0.28881 -0.50125,1.45216 -1.03852,1.09091 -0.35087,-0.23582 -0.1615,-0.98814 -0.0808,-1.30549 0.27207,-1.06893 0.74167,-2.33205 2.07623,-2.46767 m 78.22705,2.46767 c -1.37414,-0.24784 -2.27226,-0.85693 -1.94994,-2.14579 0.43816,-6.8e-4 0.82127,-0.27069 1.26172,-0.20804 1.29958,0.18519 0.96465,1.53875 0.68822,2.35383 m -26.26686,-2.36038 0.22941,0.21459 -0.22941,-0.21459 m 3.21167,0.32188 0.11471,0.10724 -0.11471,-0.10724 m 21.10525,0.10724 0.1147,0.10725 -0.1147,-0.10725 m -62.51282,0.10725 c -0.20475,0.68043 -0.85545,0.91647 -1.34202,1.40474 -0.86658,0.8697 -1.45454,2.76646 -2.78727,2.99413 0.0222,-0.88375 0.5648,-1.35367 1.09048,-2.0385 0.88126,-1.14821 1.32378,-2.19954 3.03881,-2.36037 m 39.22823,0.32187 c 0.29203,0.80306 1.59952,1.99151 2.40875,2.36036 -0.0272,-1.18855 -1.11594,-2.33192 -2.40875,-2.36036 m -74.67128,0.10724 -0.1147,0.10725 0.1147,-0.10725 m 105.64093,0.10725 -0.1147,0.10725 0.1147,-0.10725 m -89.58259,0.10725 c -0.003,1.026 -0.34548,1.75493 -1.26173,2.36037 0.0206,-0.92935 0.29789,-1.93615 1.26173,-2.36037 m 2.40875,0 c 0.10014,0.31682 0.14544,1.85557 -0.63098,1.48316 -0.81094,-0.38903 0.1693,-1.33468 0.63098,-1.48316 m 78.57116,0.32186 -0.1147,0.10725 0.1147,-0.10725 m -97.49706,0.10725 0.1147,0.42915 -0.1147,-0.42915 m 1.14703,0 v 0.32186 h -0.11471 l 0.11471,-0.32186 m 30.28144,0.10725 c -0.009,0.88599 -0.49265,1.39691 -1.37643,1.71664 0.30086,-0.6769 0.52774,-1.5526 1.37643,-1.71664 m 6.76744,0.10724 c -0.84914,1.55795 -1.45145,4.39802 -3.44108,4.93533 0.27919,-1.12805 1.00629,-1.91415 1.60102,-2.89682 0.50905,-0.84137 0.75027,-1.73551 1.84006,-2.03851 m -34.98424,0.32188 -0.1147,0.10725 0.1147,-0.10725 m 96.12063,0 -0.34411,0.42916 0.34411,-0.42916 m -100.17341,0.17885 -0.0383,0.0714 0.0383,-0.0714 m 28.7138,-0.0716 c 0.18157,0.72174 0.0813,2.28107 -0.40306,2.89221 -0.36877,0.46519 -0.99115,0.66541 -1.40775,1.08747 -0.36555,0.37048 -0.52935,0.83923 -0.94205,1.17021 l 2.52345,-5.14989 h 0.22941 m -29.13441,0.32187 0.1147,0.21458 -0.1147,-0.21458 m 0.57351,0 -0.1147,0.10725 0.1147,-0.10725 m 5.0469,0 0.11471,0.32186 h -0.11471 v -0.32186 m 0.22941,0.42915 0.1147,0.32188 -0.1147,-0.32188 m 36.01656,0 c 0.23411,1.29392 -0.87908,3.6133 -2.40875,3.64784 0.0248,-1.0849 0.8192,-1.42383 1.41061,-2.25308 0.3667,-0.51423 0.4385,-1.00497 0.99814,-1.39476 m 59.41585,0 -0.34411,0.42917 0.34411,-0.42917 m -1.03232,0.21458 -0.1147,0.10725 0.1147,-0.10725 m 1.94994,0.21459 -0.1147,0.10725 0.1147,-0.10725 m -103.00277,0.10725 v 0.32186 h -0.1147 l 0.1147,-0.32186 m 102.88807,0.10724 -0.22941,0.21458 0.22941,-0.21458 m -3.89988,2.68224 c 0.55171,0.95734 2.69894,2.18377 3.78518,2.5743 0.49551,0.17831 0.99217,0.02 1.24108,-0.43056 0.29822,-0.5404 -0.0975,-0.90669 -0.55287,-1.19295 -1.09885,-0.68869 -2.50854,-1.81748 -3.78518,-2.13098 l -0.34411,0.32187 c 0.41523,-0.82698 -1.71824,-1.86598 -2.51886,-1.66856 -0.866,0.21393 -0.53566,1.04457 -0.002,1.37941 0.30625,0.1926 0.60448,0.39826 0.91532,0.58538 0.40146,0.24172 0.78801,0.5092 1.26173,0.56209 m 4.35869,-2.57495 -0.1147,0.10725 0.1147,-0.10725 m 1.26173,0.10725 -0.22941,0.21458 0.22941,-0.21458 m -105.56442,0.17884 -0.0383,0.0714 0.0383,-0.0714 m 98.56757,0.14302 -0.1147,0.32187 h -0.11471 l 0.22941,-0.32187 m -36.36067,0.10725 c 1.56374,0.43441 2.67532,2.01983 3.69491,3.1099 0.46397,0.49599 1.07694,0.83825 1.57647,1.29852 0.3729,0.34364 1.2514,1.37191 0.50354,1.80547 -0.55389,0.32111 -1.27984,-0.59631 -1.49503,-0.95712 -0.36131,-0.60609 -0.56731,-1.29253 -1.09231,-1.80484 -1.0985,-1.07214 -2.87731,-1.84398 -3.18758,-3.45193 m 37.6224,0.53646 -0.22941,0.21457 0.22941,-0.21457 m -81.43872,0.42915 v 0.96561 h -1.14703 c 0.0373,-0.7506 0.32186,-1.09038 1.14703,-0.96561 m -9.4056,0 -1.14702,1.93121 c -1.35556,0.64245 -2.54846,2.88716 -3.36044,4.07282 -0.32358,0.4724 -0.89181,0.99661 -0.75474,1.61352 0.38907,1.75172 3.52021,0.79813 4.22988,-0.21457 1.62407,0.0849 3.68367,-1.67758 5.16161,-2.25308 l -0.11471,-0.42917 c 0.57306,-0.0901 -0.1717,-0.74157 -0.45881,-0.83492 -0.60666,-0.19742 -2.4466,0.57754 -2.52345,1.1568 -1.10378,-0.13436 -2.57679,0.94758 -3.55577,1.39476 0.84306,-1.58338 2.21502,-2.99627 3.21728,-4.50616 0.55356,-0.83386 0.50206,-1.75279 -0.69383,-1.93121 m -8.87028,0.17886 -0.0383,0.0714 0.0383,-0.0714 m 23.43749,-0.0716 c -0.0236,0.91422 -0.59175,1.21838 -1.49113,1.39478 0.31222,-0.60126 0.8309,-1.12783 1.49113,-1.39478 m 32.11667,0.32188 0.57352,3.21867 c -1.07029,-0.71314 -1.39765,-2.27732 -1.03233,-3.43326 l 0.45881,0.21459 m -7.34095,0 c 0.32507,0.95905 0.36957,2.03431 -0.91762,2.25308 l 0.91762,-2.25308 m 50.12496,5.79363 c 0.39343,-0.66101 1.39019,-1.36043 1.4441,-2.14568 0.0401,-0.5784 -0.66527,-0.97452 -1.21011,-0.72776 -0.38425,0.17479 -1.29843,1.32492 -1.49572,1.69326 -0.42669,-0.23186 -1.58955,-0.84877 -1.5182,-1.39638 0.12411,-0.95262 1.60193,-1.2497 1.05939,-2.35876 l -0.57351,0.21459 0.34411,-0.42917 c -1.25611,-0.26909 -1.80909,0.90671 -2.48974,1.69797 -0.32953,0.38313 -0.82023,0.75392 -0.60161,1.30196 0.26095,0.65361 1.25255,1.14639 1.81012,1.56803 1.32481,1.00112 2.52804,2.17668 3.91938,3.09852 0.64807,0.42948 1.9855,0.19258 1.64827,-0.78998 -0.22596,-0.65768 -1.6953,-1.49432 -2.33648,-1.7266 m 1.60583,-5.25719 -0.1147,0.10725 0.1147,-0.10725 m -37.73709,3.75513 c -0.93907,-0.53054 -1.57097,-1.58477 -2.27444,-2.36037 -0.18329,-0.20202 -0.69796,-0.71464 -0.39687,-0.9965 0.36085,-0.33775 0.81852,0.36801 0.99367,0.56777 0.74545,0.85006 1.55192,1.6395 1.67764,2.7891 m 3.89988,1.82393 c -0.70646,-0.23679 -1.02177,-0.95617 -1.44055,-1.50205 -0.81749,-1.06582 -3.28141,-2.31939 -3.03285,-3.75514 0.76472,0.14431 1.18878,0.73075 1.73075,1.21087 1.25519,1.11162 2.7376,2.32872 2.74265,4.04632 m -57.46591,-5.1499 0.1147,0.32187 -0.1147,-0.32187 m -8.60269,0.10724 v 0.32187 h -0.1147 l 0.1147,-0.32187 m 96.00593,0 -0.45881,0.42916 0.45881,-0.42916 m 6.42333,0 -0.2294,0.64373 0.2294,-0.64373 m -67.21561,0.10725 c -0.4993,1.96994 -2.35737,3.83914 -4.12929,4.93531 0.0147,-1.65504 0.83285,-1.88883 1.90567,-3.01408 0.67341,-0.70628 1.26459,-1.54144 2.22362,-1.92123 m -35.09895,0.42915 -0.1147,0.10725 0.1147,-0.10725 m 25.46394,0.10725 c -0.0609,0.55147 -0.26381,0.97365 -0.91762,0.85832 l 0.91762,-0.85832 m 6.30864,0 c 0.0988,1.59315 -2.21961,3.53958 -3.78518,3.54055 0.60884,-1.34498 2.44522,-2.82644 3.78518,-3.54055 m -23.16989,0.10725 -0.1147,0.10724 0.1147,-0.10724 m 49.89555,0.10724 c 0.5071,0.6961 0.72022,1.22182 1.49102,1.72618 0.43759,0.28637 2.03975,2.59513 0.56858,2.51959 -1.23088,-0.0632 -2.70297,-3.35977 -2.0596,-4.24577 m -13.99369,0.10725 c -0.0537,1.09597 -1.10505,3.27695 -2.52346,2.89682 l 1.32562,-1.40871 1.19784,-1.48811 m 59.378,0.17886 -0.039,0.0714 0.039,-0.0714 m 0.38196,0.46488 -0.11471,0.10725 0.11471,-0.10725 m -27.29918,2.78952 c -0.18307,-0.39815 -1.12994,-2.23784 -0.74821,-2.45843 0.37164,-0.21468 0.82345,0.26029 0.97612,0.52777 0.33333,0.58365 0.22207,1.44315 -0.22791,1.93066 m -2.40875,1.93122 c -0.26714,-6.7e-4 -0.53841,0.008 -0.80315,-0.0327 -1.55456,-0.23604 -0.866,-1.71738 -1.48952,-2.61464 -0.25935,-0.37315 -1.70574,-0.97591 -1.23753,-1.5778 0.30534,-0.39258 1.28042,0.2443 1.57968,0.40866 1.17857,0.64728 1.8435,2.59061 1.95052,3.8165 m -35.09884,-4.18429 c -0.3495,0.96002 -0.8605,1.82038 -1.94995,2.14579 -0.20634,-0.80081 1.17903,-1.93432 1.94995,-2.14579 m -3.78518,0.10725 c -0.097,0.88073 -0.78744,1.06538 -1.27859,1.72091 -0.75704,1.01068 -0.71081,2.04903 -2.16249,2.46337 0.0884,-0.74684 0.66275,-1.11302 1.06272,-1.71663 0.61928,-0.93428 1.04345,-2.21574 2.37836,-2.46765 m -28.79031,0.21457 0.45881,0.21458 v 0.10725 l -0.45881,-0.32187 m 40.37525,0.10725 c -0.12629,0.8728 -0.52958,1.75815 -1.08853,2.46723 -0.1982,0.25148 -0.55756,0.76863 -0.95902,0.55491 -0.42761,-0.22756 -0.19305,-0.68956 -0.006,-0.98364 0.46282,-0.72849 1.22605,-1.6765 2.05375,-2.0385 m 11.69964,3.43326 c -1.43745,-0.39965 -1.79498,-2.21424 -2.06464,-3.43326 1.34397,0.19409 2.05157,2.32217 2.06464,3.43326 m 38.65472,-3.43326 -0.1147,0.32186 0.1147,-0.32186 m -3.21167,0.21458 -0.1147,0.10724 0.1147,-0.10724 m -40.26055,7.61755 c -1.56362,-1.51332 -0.64887,-3.60706 -0.71838,-5.36448 -0.0177,-0.44546 -0.59026,-1.82917 0.26129,-1.93967 0.64119,-0.0831 0.57179,0.84897 0.48588,1.18866 -0.51157,2.02144 0.58384,4.1771 -0.0288,6.11549 m -43.12811,-7.29568 -0.1147,0.10725 0.1147,-0.10725 m 0.0765,0.28614 -0.0383,0.0714 0.0383,-0.0714 m 51.76899,-0.0716 c 0.80911,0.0507 2.80963,1.62233 2.06131,2.51015 -0.28825,0.34203 -0.86956,0.0467 -1.12248,-0.17424 -0.68959,-0.60275 -0.93138,-1.48747 -0.93883,-2.33591 m -52.64841,0.21458 -0.11471,0.10725 0.11471,-0.10725 m 39.45763,0 c 0.0516,0.72807 -0.11184,2.18602 -1.03233,2.25308 0.008,-0.9287 0.2356,-1.65344 1.03233,-2.25308 m -38.42531,0.10725 0.3441,0.21457 v 0.10725 l -0.3441,-0.32186 m -5.50572,0.10724 -0.1147,0.10725 0.1147,-0.10725 m 4.5881,0 0.1147,0.21458 -0.1147,-0.21458 m 86.82973,0 -0.22941,0.21458 v -0.21458 h 0.22941 m -0.80292,0.10725 -0.45881,0.32188 v -0.10725 l 0.45881,-0.21459 m -87.86205,0.75103 0.1147,0.32187 -0.1147,-0.32187 m 2.40875,3.64784 c -0.77447,0.21566 -2.94774,2.05352 -2.77144,2.89264 0.12181,0.57979 0.97623,1.14939 1.41611,1.54056 0.48153,0.42917 1.6851,1.86148 2.47655,1.46021 0.96659,-0.48923 0.005,-1.35506 -0.44459,-1.75429 -1.11904,-0.99253 -1.40396,-1.76008 0.1155,-2.69007 0.25373,-0.15524 0.4158,-0.0365 0.61986,0.1281 0.53531,0.43151 2.65765,2.13635 2.48789,0.24677 0.62054,-0.0996 -1.32435,-1.80419 -1.60583,-2.03851 v -0.10724 c 0.43139,-0.24045 0.86359,-1.14489 1.38514,-1.13105 0.64245,0.0169 1.46074,1.6352 2.05593,1.13105 0.58338,0.12319 0.94756,-0.29076 0.7349,-0.84866 -0.25269,-0.66305 -2.3615,-2.63417 -3.14354,-2.33956 -0.75944,0.28604 -1.63393,1.50044 -2.19276,2.07014 -0.4018,0.40975 -1.04609,0.87979 -1.13372,1.43994 m 30.51084,-3.32598 c -0.20348,1.05445 -1.1125,1.50817 -1.80943,2.25727 -0.42359,0.45523 -0.45456,0.9095 -1.17283,0.96142 0.27609,-1.02171 1.79911,-3.18586 2.98226,-3.21869 m 55.51597,0 -0.45881,0.32187 v -0.10725 l 0.45881,-0.21457 m -91.68543,0.60801 -0.0383,0.0714 0.0383,-0.0714 m 92.60305,-0.0716 -0.45881,0.42916 0.45881,-0.42916 m -26.95507,3.86242 c -1.30944,-0.52957 -2.03665,-2.28012 -2.06464,-3.54055 1.59081,0.036 2.63804,2.24396 2.06464,3.54055 m 27.14663,-3.36171 -0.039,0.0714 0.039,-0.0714 m -54.67521,0.14302 c -0.26037,0.83204 -0.97783,2.17519 -1.94994,2.36037 0.23732,-0.94705 0.8004,-2.24062 1.94994,-2.36037 m 56.08949,0.10725 -0.22941,0.21458 0.22941,-0.21458 m -62.97163,0.10725 c -0.20429,0.96003 -1.56695,2.85026 -2.63816,2.89682 0.47556,-0.94029 1.42403,-2.83416 2.63816,-2.89682 m -31.31376,0.42916 -0.1147,0.10725 0.1147,-0.10725 m 10.32322,0 -0.11471,0.10725 0.11471,-0.10725 m 1.26172,0 0.45881,0.64373 h -0.1147 l -0.34411,-0.64373 m -3.32637,0.10725 0.1147,0.32187 -0.1147,-0.32187 m 34.98424,0.10725 c 0.0815,0.71497 0.0424,1.48918 -0.80292,1.71664 0.007,-0.72571 0.23744,-1.21206 0.80292,-1.71664 m 7.11155,0 c 0.90844,0.67142 1.51315,2.48042 1.60583,3.54055 -1.30474,-0.24644 -2.21765,-2.46411 -1.60583,-3.54055 m 6.45981,0.20192 c 0.55287,-0.11734 0.73283,0.6625 0.92898,0.96829 0.38046,0.59331 1.93468,1.77274 0.18191,2.15125 -0.90179,0.19485 -0.96396,-2.01554 -1.21642,-2.5699 -0.078,-0.17144 -0.18111,-0.48892 0.10553,-0.54964 m -1.5276,3.66049 c -1.73201,-0.80145 -2.63851,-1.62349 -3.09697,-3.43326 l 0.1147,-0.10725 c 1.34191,0.26341 1.25439,1.12021 1.94639,2.01984 0.43495,0.56552 0.95272,0.76626 1.03588,1.52072 m -48.06032,-3.43327 0.1147,0.21459 h -0.2294 l 0.1147,-0.21459 m 55.40127,2.78954 c -0.91166,-0.6299 -1.25267,-1.76471 -1.26173,-2.78954 1.26769,0.23937 1.71916,1.77404 1.26173,2.78954 m -16.17304,-2.46766 c -2.3e-4,1.54668 -0.56009,3.16321 -1.37643,4.50616 l -0.68822,-0.21459 1.83524,-4.29157 h 0.22941 m 33.72251,3.43326 c 0.0966,0.55661 0.62719,1.05423 0.99263,1.50205 0.81795,1.00209 1.61559,2.04386 2.51451,2.98373 0.44229,0.46349 1.17685,0.795 1.69989,0.19311 0.91028,-1.04822 -2.20068,-2.15973 -1.17042,-2.99981 1.14748,-0.93524 2.41884,1.14156 3.64845,0.96238 0.5001,-0.074 1.3169,-0.66733 0.75268,-1.13404 -0.85557,-0.70843 -2.26147,-1.37031 -3.39083,-1.50742 0.1264,-0.52476 0.094,-0.99984 -0.1123,-1.50367 -0.86118,-2.10286 -3.33153,-2.18183 -5.00068,-0.92697 -0.33023,0.24826 -0.86107,0.57003 -1.00674,0.95916 -0.20784,0.55566 0.61515,1.2614 1.07281,1.47148 m 1.94994,-3.21868 -0.34411,0.21457 v -0.10724 l 0.34411,-0.10725 m -75.58889,0.21458 0.2294,0.32186 -0.2294,-0.32186 m 76.96532,0 -0.34411,0.32186 0.34411,-0.32186 m -22.02286,3.21868 c -1.19348,-0.69427 -2.10181,-1.74797 -1.83524,-3.1114 1.52749,0.0463 1.79245,1.97939 1.83524,3.1114 m -55.17187,-2.78952 -0.1147,0.10725 0.1147,-0.10725 m 6.76744,3.54055 h 0.11471 l -0.34411,2.57495 0.45881,-0.10725 c -0.18834,0.14698 -0.4907,0.2489 -0.60311,0.46242 -0.46741,0.88835 -0.69085,3.98579 0.71781,4.20037 0.61423,0.0934 0.92989,-0.50211 1.19807,-0.90337 0.64199,-0.96132 2.09951,-2.48697 2.0136,-3.65213 0.76483,-0.23604 2.626,-3.02836 1.37058,-3.43992 -0.6257,-0.20525 -0.98931,0.45652 -1.25553,0.86497 -0.77241,1.18447 -1.72112,2.3668 -2.2944,3.64784 -0.26978,-1.49669 0.43667,-3.31428 0.5734,-4.82803 0.0531,-0.58816 0.29834,-1.38039 -0.18949,-1.86544 -0.99974,-0.99414 -1.92654,0.77248 -2.4123,1.43672 -0.79524,1.08737 -1.64025,2.17862 -2.50557,3.21825 -0.43862,0.52787 -1.14186,1.06002 -1.36128,1.71662 -0.20429,0.61156 0.53462,1.28104 1.17295,0.9624 0.80452,-0.40126 1.32469,-1.50527 1.87125,-2.16081 0.54449,-0.65232 1.13429,-1.36044 1.47461,-2.12755 m 70.65669,-3.32597 -0.1147,0.10725 0.1147,-0.10725 m -1.94994,0.42915 c 0.48565,0.30491 1.14198,0.0376 1.55606,0.5932 0.34961,0.46897 0.0954,1.98733 -0.73375,1.88293 -0.80028,-0.10084 -1.94972,-1.77467 -0.82231,-2.15426 l -0.2294,-0.21458 0.2294,-0.10725 m -39.91644,0.32187 c -0.17698,0.91411 -0.96533,1.67822 -1.94994,1.82392 0.15519,-1.11752 0.90168,-1.44347 1.94994,-1.82392 m -36.13126,0.21457 -0.1147,0.10725 0.1147,-0.10725 m 7.79976,0 -0.1147,0.10725 0.1147,-0.10725 m 23.16989,0.10725 c -0.5485,1.09939 -1.85542,1.67114 -3.09696,1.39476 0.45124,-0.80693 2.16157,-1.38694 3.09696,-1.39476 m 43.70162,0.10725 -0.1147,0.10725 0.1147,-0.10725 m -75.35948,0.42915 -0.11471,0.10725 0.11471,-0.10725 m 73.98306,7.83213 -1.14703,-1.82392 c 0.65725,-0.26822 3.32752,-1.73594 1.49113,-2.25308 -0.0993,-0.72742 -1.99766,0.53859 -2.29405,0.85832 -0.28354,-0.29076 -1.27686,-1.19628 -1.02979,-1.63188 0.37094,-0.65553 2.3756,-0.90799 1.69461,-2.00588 -0.58888,-0.94962 -3.4873,0.66981 -3.78633,1.40722 -0.23927,0.59008 0.49529,1.24133 0.77883,1.70374 0.81829,1.33362 1.67408,2.64254 2.51921,3.96006 0.31222,0.4871 0.64429,1.25636 1.31633,1.36259 0.93769,0.14912 2.36355,-1.0214 3.09513,-1.48705 0.29994,-0.19097 0.70358,-0.39804 0.82597,-0.74243 0.50423,-1.41516 -1.75575,-0.2693 -2.08759,-0.0804 -0.44929,0.25641 -0.91521,0.49567 -1.37642,0.73278 m -65.26568,-6.97381 0.1147,0.21457 -0.1147,-0.21457 m 63.43044,0 v 0.10725 l -0.45881,0.10724 0.45881,-0.21457 m 4.7028,0 -0.34411,0.21457 v -0.10724 l 0.34411,-0.10725 m -5.27632,0.21457 -0.1147,0.10725 0.1147,-0.10725 m -71.2302,0.10725 0.1147,0.21458 -0.1147,-0.21458 m 7.22625,0.10725 0.34411,0.32186 v 0.10725 l -0.34411,-0.42917 m 4.81751,0 0.2294,0.42917 -0.2294,-0.42917 m -3.44108,0.32187 0.11471,0.21459 -0.11471,-0.21459 m 67.21562,0 -0.1147,0.10725 0.1147,-0.10725 m 0.91762,0.42917 -0.34411,0.21457 v -0.10725 l 0.34411,-0.10724 m -5.73512,0.10724 -0.1147,0.10725 0.1147,-0.10725 m -55.17187,2.1458 -1.96485,3.9697 -0.788,1.82393 c -0.84054,0.49031 -0.5391,1.79709 0.57179,1.55891 0.56089,-0.12128 0.74579,-0.70275 0.96797,-1.12976 0.56457,-1.08576 1.52658,-2.42796 1.5572,-3.64784 0.58418,-0.11583 0.87656,-1.21022 1.03233,-1.71663 0.50801,0.1202 0.97393,0.45705 1.48941,0.5225 0.75382,0.0955 1.13853,-0.85402 0.64015,-1.32718 -0.76369,-0.72634 -3.01449,-1.75418 -4.07939,-1.97842 -0.6311,-0.13218 -1.05022,0.53753 -0.84685,1.06217 0.19282,0.49676 0.91808,0.75533 1.42024,0.86262 m 54.94246,-2.03851 -0.1147,0.10725 0.1147,-0.10725 m -64.11865,0.10725 0.22941,0.32186 -0.22941,-0.32186 m 75.01539,0 -0.11471,0.10725 0.11471,-0.10725 m -75.93301,0.10725 0.11471,0.21457 h -0.22941 l 0.1147,-0.21457 m -5.27631,0.10724 -0.1147,0.10725 0.1147,-0.10725 m 76.96532,0.10725 -0.2294,0.21459 0.2294,-0.21459 m -76.88881,0.17917 -0.0383,0.0709 0.0383,-0.0709 m 14.94951,-0.0718 0.3441,0.21457 v 0.10725 l -0.3441,-0.32186 m -8.94679,0.10724 v 0.21458 l -0.22941,-0.21458 h 0.22941 m 71.19201,0.17918 -0.0383,0.0709 0.0383,-0.0709 m -60.86879,0.14269 0.1147,0.21458 -0.1147,-0.21458 m 48.40442,4.18429 c -0.0919,0.72957 0.83366,2.77665 1.60583,3.0041 v 0.10725 c -0.54942,0.58366 0.92588,1.99773 1.78959,1.31644 0.40995,-0.32294 0.24397,-0.7242 0.0368,-1.10187 -0.46558,-0.84865 -1.30187,-3.15645 -2.28522,-3.43325 V 241.444 c 0.38506,-0.3637 -0.48255,-1.50634 -0.68821,-1.9312 0.78055,-0.15665 2.54249,-1.37653 0.91268,-1.84002 -0.41614,-0.11911 -0.89353,0.17381 -1.25679,0.32938 -0.8137,0.34869 -3.87189,1.12117 -3.34254,2.25522 0.45755,0.98063 1.49147,-0.0762 2.16409,0.15771 0.51054,0.17703 0.56537,0.97527 1.06375,1.2435 m 11.92905,-3.86243 -0.1147,0.10724 0.1147,-0.10724 m 1.60583,0.21457 -0.1147,0.10725 0.1147,-0.10725 m -68.36264,0.32188 0.34411,0.21458 v 0.10725 l -0.34411,-0.32187 m 60.21877,0.0354 c 0.0887,0 0.0184,0.0537 -0.0382,0.0365 l 0.0382,-0.0365 m -3.89988,0.28646 v 0.10725 h -0.34411 l 0.34411,-0.10725 m 12.61727,0 -0.11471,0.10725 0.11471,-0.10725 m -15.37013,0.10725 -0.1147,0.10725 0.1147,-0.10725 m 2.17935,0.0354 c 0.0887,0 0.0184,0.0537 -0.0382,0.0365 l 0.0382,-0.0365 m -1.72054,0.072 -0.1147,0.10725 0.1147,-0.10725 m -60.56288,0.10725 -0.1147,0.10725 0.1147,-0.10725 m 14.2231,0.10725 0.57352,0.32188 v 0.10724 l -0.68822,-0.32187 0.1147,-0.10725 m 52.87782,0.21457 v 0.10725 l -0.45881,0.10725 v -0.10725 l 0.45881,-0.10725 m -62.51282,0.10725 -0.1147,0.10725 0.1147,-0.10725 m 8.48798,0 -0.1147,0.10725 0.1147,-0.10725 m 46.11037,0 -0.45881,0.21458 v -0.10725 l 0.45881,-0.10725 m 2.52346,0.53644 -0.11471,0.10725 0.11471,-0.10725 m 5.96452,0.10725 v 0.10725 l -0.34411,0.10725 0.34411,-0.21458 m -61.8246,0.21458 0.2294,0.10724 v 0.10725 l -0.2294,-0.21457 m 51.50138,6.00822 v 0.10724 c -0.33779,0.32187 -0.16058,0.86368 -0.61124,1.21773 -0.65197,0.51178 -1.42782,0.12333 -2.12464,0.35834 -0.59301,0.20064 -0.37783,1.02785 0.10449,1.21024 0.77665,0.2929 1.90797,0.0193 2.63139,-0.2972 2.335,-1.02139 1.77112,-4.60593 -0.91762,-4.6349 v -0.10725 h 0.22941 v -0.10724 c -1.01558,-0.0998 -3.91628,-0.77034 -2.13473,-2.11039 0.4119,-0.309 1.0009,0.0343 1.41784,-0.21995 0.34216,-0.20922 0.24971,-0.49889 -0.086,-0.56648 v -0.10725 h 0.34411 c -0.49701,-1.32717 -2.73198,-0.51392 -3.38223,0.32402 -0.81611,1.05143 -0.26324,2.89359 0.76518,3.64676 0.77023,0.56435 1.63405,0.48709 2.50235,0.74888 0.44997,0.13627 0.80177,0.42595 1.26172,0.53753 m -1.94994,-5.75823 c 0.0887,0 0.0184,0.0537 -0.0382,0.0365 l 0.0382,-0.0365 m 12.38786,-0.0354 -0.1147,0.10725 0.1147,-0.10725 m -12.61726,0.10725 -0.11471,0.10724 0.11471,-0.10724 m -43.70162,0.32186 -0.11471,0.10725 0.11471,-0.10725 m 42.8987,0 -0.91762,0.21458 v -0.10725 l 0.91762,-0.10725 m -33.83721,5.47177 c -0.51582,0.40555 -1.26884,2.65434 -0.75153,3.16825 0.44619,0.44203 1.50696,0.6373 2.12796,0.72635 2.58413,0.37123 4.3775,-0.49139 5.08808,-2.92899 0.1927,-0.66092 0.68948,-2.23914 -0.0412,-2.68225 v -0.10725 h 0.34411 c -0.41408,-1.87648 -1.52784,-2.93329 -3.55578,-3.31631 -0.465,-0.088 -1.1305,-0.36479 -1.58002,-0.11379 -0.44287,0.24677 -0.47659,0.86583 -0.6007,1.28426 -0.34342,1.15766 -1.22043,2.77128 -1.03094,3.96972 m 48.17501,-5.1145 c 0.0887,0 0.0184,0.0537 -0.0382,0.0365 l 0.0382,-0.0365 m 3.55578,0.42916 c 0.0887,0 0.0184,0.0537 -0.0382,0.0365 l 0.0382,-0.0365 m -10.32322,0.21458 0.0382,0.0365 c -0.0565,0.0172 -0.12686,-0.0365 -0.0382,-0.0365 m 8.48798,-0.0354 -0.1147,0.10725 0.1147,-0.10725 m -23.7434,5.0426 -0.1147,0.96561 h 0.45881 v 0.10724 h -0.34411 c 0.0342,0.74245 0.13305,2.03743 0.5664,2.67043 0.32919,0.48067 1.25221,0.59333 1.52612,-0.0109 0.33206,-0.73278 -0.71586,-1.72521 -0.25246,-2.399 0.21919,-0.31865 0.79156,-0.3358 1.13199,-0.48494 0.54495,-0.24033 0.92634,-0.61477 1.27194,-1.06324 l -0.22941,-0.32187 c 0.70783,-0.14162 0.51915,-1.30679 0.4002,-1.82392 -0.33585,-1.45913 -0.96293,-1.93658 -2.46484,-2.0385 v -0.10725 h 0.80292 c -0.66401,-0.471 -3.19722,-0.40127 -3.58365,0.4517 -0.35569,0.78642 0.31635,3.39356 0.83079,4.05446 m 6.30863,-4.82802 -0.34411,0.21458 v -0.10725 l 0.34411,-0.10725 m -23.7434,4.18428 c -0.40444,0.40341 -0.39492,0.97098 -0.47372,1.50206 -0.13042,0.87763 -0.20601,1.95159 0.27173,2.75841 0.74671,1.26279 2.87353,1.63402 4.05152,0.72098 0.61217,-0.47421 0.98621,-1.09971 1.31873,-1.76276 0.37554,-0.74888 0.45216,-1.43768 0.45216,-2.25308 l -1.14702,-0.42915 v -0.10725 l 1.14702,0.32186 0.1147,-3.64784 h -0.45881 v -0.10724 h 0.34411 c -1.0485,-1.10724 -1.31988,0.57292 -1.42426,1.28747 -0.22149,1.51385 0.0443,3.12426 -0.35524,4.61344 -0.17044,0.63516 -0.70358,1.40121 -1.53609,1.18556 -0.75921,-0.19635 -1.00238,-1.31645 -1.04586,-1.93659 -0.0899,-1.28531 0.0617,-2.6479 0.24753,-3.92465 0.0696,-0.47743 0.33161,-1.28961 -0.01,-1.71555 -0.32599,-0.40556 -0.9939,-0.22745 -1.20816,0.18024 -0.34262,0.65125 -0.72917,2.72516 -0.28836,3.31417 m -6.76745,-2.78952 0.57351,-0.85832 c 3.01794,0.38195 3.60281,4.21541 1.35648,5.94813 -0.50756,0.39161 -2.54697,0.83687 -2.8827,0.0183 -0.15806,-0.38624 0.16173,-1.08578 0.28446,-1.46021 0.32426,-0.98921 1.0899,-2.66722 0.66825,-3.64784 m 2.52346,-0.85832 -0.11471,0.10724 0.11471,-0.10724 m 5.62042,0.10724 v 0.10725 h -0.34411 l 0.34411,-0.10725 m 10.20851,6.2228 h -0.1147 c -0.10186,-0.78214 -0.49299,-1.50957 -0.74878,-2.25308 -0.33768,-0.9817 -0.4923,-2.21446 -1.05136,-3.1114 -0.25923,-0.41521 -1.02556,-0.65768 -1.4784,-0.35513 -0.66883,0.44847 -0.49253,2.32604 -0.50664,3.03737 -0.007,0.37766 -0.10874,0.76712 0.34411,0.85831 v 0.10725 c -0.49036,0.1341 -0.42819,0.54503 -0.44448,0.96561 -0.031,0.79931 -0.54002,2.97943 0.0723,3.59634 0.54093,0.5461 1.31793,-0.0612 1.44387,-0.59223 0.30454,-1.28319 0.0754,-2.86785 0.0754,-4.18429 h 0.1147 c 0.10977,1.25528 0.73651,3.23692 1.50364,4.28192 0.46236,0.62872 1.54882,0.71025 1.59333,-0.20492 0.66022,-0.49676 0.97589,-2.79167 0.80291,-3.54056 l 0.22941,-0.75102 h 0.2294 c 0.0523,1.13941 0.12113,3.41717 0.80154,4.37419 0.32599,0.45812 1.31381,0.46993 1.53346,-0.0944 0.14659,-0.37659 -0.10059,-0.89266 -0.15565,-1.27568 l -0.45881,-0.32187 0.34411,0.10725 -1.03232,-5.25717 -1.14703,-0.32188 1.14703,0.10724 c -0.24099,-0.86153 -1.39524,-2.06424 -2.00007,-0.64159 -0.68386,1.60828 -0.86509,3.75515 -1.0969,5.46963 m -6.42334,-5.75823 c 0.0887,0 0.0184,0.0537 -0.0382,0.0365 l 0.0382,-0.0365 m -23.28459,0.0718 v 0.10725 h -0.45881 l 0.45881,-0.10725 m 38.65472,0 0.34411,0.10725 v 0.10725 l -0.45881,-0.10725 0.1147,-0.10725 m 3.67048,0.14269 c 0.0887,0 0.0184,0.0537 -0.0382,0.0365 l 0.0382,-0.0365 m 10.20851,-0.0354 -0.1147,0.42915 h -0.1147 l 0.2294,-0.42915 m -54.02484,0.10725 -0.1147,0.10725 0.1147,-0.10725 m 38.31061,2.89681 -0.57351,-2.57495 c 2.24071,-1.03641 3.21706,2.55242 0.57351,2.57495 m -1.60583,-2.78952 -0.11471,0.10724 0.11471,-0.10724 m -12.15846,0.21457 v 0.10725 h -0.34411 l 0.34411,-0.10725 m 19.84352,0.10725 c -0.11206,0.36801 -0.30316,0.37015 -0.57351,0.10725 l 0.57351,-0.10725 m -15.59953,0.32188 v 0.10725 h -0.45881 l 0.45881,-0.10725 m -16.05834,0.21458 -0.1147,0.10724 0.1147,-0.10724 m 12.50257,0 -0.80292,0.21457 0.80292,-0.21457 m -8.71739,0.10724 0.45881,0.21458 v 0.10725 l -0.45881,-0.32187 m 30.16674,0 -0.57352,0.32187 v -0.10725 l 0.57352,-0.21458 m -46.11038,0.24998 c 0.0887,0 0.0184,0.0537 -0.0382,0.0365 l 0.0382,-0.0365 m 28.67561,0 c 0.0887,0 0.0184,0.0537 -0.0382,0.0365 l 0.0382,-0.0365 m -17.09066,0.072 v 0.21457 l -0.22941,-0.21442 h 0.22941 m 42.5546,0 -0.11471,0.10724 0.11471,-0.10724 m -54.48365,0.21457 -0.11471,0.10725 0.11471,-0.10725 m 33.3784,0 v 0.10725 l -0.57351,0.10725 v -0.10725 l 0.57351,-0.10725 m -5.62042,0.21458 h 0.45881 v 0.10725 h -0.57351 l 0.1147,-0.10725 m 26.72567,0.10725 -0.11471,0.10724 0.11471,-0.10724 m -22.48168,0.10724 h 0.57351 v 0.10725 h -0.68821 l 0.1147,-0.10725 m 4.7028,0 h 0.45881 l -0.57351,0.10725 0.1147,-0.10725 m 1.14702,0.42916 -0.1147,0.10724 0.1147,-0.10724 m -27.06977,0.24998 c 0.0887,0 0.0184,0.0537 -0.0382,0.0365 l 0.0382,-0.0365 m 26.49626,0.0719 -0.1147,0.10725 0.1147,-0.10725 m -20.99054,0.21457 -0.1147,0.10725 0.1147,-0.10725 m 12.04375,0 v 0.10725 h -0.57351 l 0.57351,-0.10725 m 20.41704,0.0354 c 0.0887,0 0.0184,0.0537 -0.0382,0.0365 l 0.0382,-0.0365 m -32.23138,0.10724 c 0.0887,0 0.0184,0.0537 -0.0382,0.0365 l 0.0382,-0.0365 m 16.51714,-0.0354 -0.1147,0.10725 0.1147,-0.10725 m 3.89989,0.10725 -0.11471,0.10725 0.11471,-0.10725 m -16.97596,0.10725 v 0.10724 h -0.34411 l 0.34411,-0.10724 m 8.14387,0.24998 c 0.0887,0 0.0184,0.0537 -0.0382,0.0365 l 0.0382,-0.0365 m 2.06464,0.17917 c -0.18581,0.31543 -0.30809,0.37551 -0.68821,0.32186 v -0.10724 l 0.68821,-0.21458 m 18.46709,0.10725 -0.1147,0.10725 0.1147,-0.10725 m -37.62239,0.24999 c 0.0887,0 0.0184,0.0537 -0.0382,0.0365 l 0.0382,-0.0365 m 12.61727,0.28646 h 0.45881 v 0.10725 0.10725 l -0.57352,-0.10725 0.11471,-0.10725 m 11.01143,0.21458 v 0.10725 h -0.45881 l 0.45881,-0.10725 m -6.30864,0.10725 -0.1147,0.10724 0.1147,-0.10724 m 8.94679,0.10724 -0.1147,0.10725 0.1147,-0.10725 m 7.79977,0.21458 -0.11471,0.10725 0.11471,-0.10725 m -11.47024,0.57186 0.0382,0.0365 c -0.0566,0.0172 -0.12686,-0.0365 -0.0382,-0.0365 m 0.3441,0 c 0.0887,0 0.0184,0.0537 -0.0382,0.0365 l 0.0382,-0.0365 m -19.61411,0.072 0.22941,0.10725 v 0.10725 l -0.22941,-0.21458 m 6.19393,0.21458 -0.68821,0.32186 v -0.10725 l 0.68821,-0.21457 m -5.84982,0.10724 0.1147,0.21458 -0.1147,-0.21458 m 15.59953,0 v 0.10725 h -0.34411 l 0.34411,-0.10725 m 7.57035,0 -0.1147,0.10725 0.1147,-0.10725 m 0.22941,0 -0.1147,0.10725 0.1147,-0.10725 m -14.56721,0.64375 v 0.10724 h -0.45881 l 0.45881,-0.10724 m 3.67048,0.0354 0.0382,0.0365 c -0.0566,0.0172 -0.12686,-0.0365 -0.0382,-0.0365 m 2.75286,-0.0354 -0.1147,0.10724 0.1147,-0.10724 m 5.39101,0.53644 v 0.10724 h -0.3441 l 0.3441,-0.10724 m -4.01458,0.24999 0.0382,0.0365 c -0.0565,0.0172 -0.12686,-0.0365 -0.0382,-0.0365 m 0.3441,0.10725 0.0382,0.0365 c -0.0566,0.0172 -0.12686,-0.0365 -0.0382,-0.0365 m 2.86757,0.28646 -0.11471,0.10725 z"
       id="path306" />
  </g>
</svg>
